<svg width="151" height="147" viewBox="0 0 151 147" fill="none" xmlns="http://www.w3.org/2000/svg">
<path d="M150.738 73.959C150.738 113.433 118.638 145.749 79.3813 146.183V144.014C117.554 143.58 148.569 112.348 148.569 73.959C148.569 65.7173 147.051 57.4755 144.231 49.8844C144.014 49.2337 144.231 48.7999 144.882 48.583C145.532 48.3662 145.966 48.583 146.183 49.2337C149.22 57.0417 150.738 65.2835 150.738 73.959Z" fill="#00E5C3"/>
<path d="M140.327 34.4855C140.11 34.4855 139.893 34.4855 139.46 34.4855C126.229 13.6641 103.89 1.08456 79.1644 0.867676V3.03656C103.022 3.25345 124.711 15.3992 137.508 35.5699C137.074 36.2206 136.64 36.8712 136.64 37.7388C136.64 39.6908 138.158 41.209 140.11 41.209C142.062 41.209 143.58 39.6908 143.58 37.7388C143.58 35.7868 142.279 34.4855 140.327 34.4855ZM140.327 39.257C139.676 39.257 139.026 38.8232 139.026 37.9557C139.026 37.0881 139.676 36.6543 140.327 36.6543C140.978 36.6543 141.628 37.305 141.628 37.9557C141.628 38.6063 140.978 39.257 140.327 39.257Z" fill="#00E5C3"/>
<path d="M123.41 122.325C111.264 133.604 95.648 139.676 79.3813 139.893V137.724C95.2142 137.508 110.396 131.435 122.108 120.807C122.542 120.373 123.193 120.373 123.627 120.807C123.844 121.241 123.844 121.892 123.41 122.325Z" fill="#00E5C3"/>
<path d="M127.314 117.77C127.097 117.77 126.88 117.77 126.663 117.554C126.229 117.12 126.229 116.469 126.663 116.035C136.857 104.323 142.713 89.358 142.713 73.9589C142.713 49.8842 129.266 27.9784 107.794 16.9171C107.36 16.7002 107.143 16.0495 107.36 15.3989C107.577 14.9651 108.228 14.7482 108.878 14.9651C131.218 26.2433 145.099 48.7998 145.099 73.742C145.099 89.7918 139.243 105.191 128.615 117.337C127.964 117.77 127.748 117.77 127.314 117.77Z" fill="#00E5C3"/>
<path d="M102.372 10.1941C101.287 10.1941 100.42 10.6279 99.9858 11.2786C93.4791 9.10968 86.5387 7.80835 79.3813 7.80835V9.97724C86.1049 9.97724 92.6116 11.0617 98.9013 13.2306V13.4475C98.9013 15.3995 100.42 16.9177 102.372 16.9177C104.324 16.9177 105.842 15.3995 105.842 13.4475C105.625 11.7124 104.107 10.1941 102.372 10.1941ZM102.372 14.7488C101.721 14.7488 101.07 14.0981 101.07 13.4475C101.07 12.7968 101.721 12.1461 102.372 12.1461C103.022 12.1461 103.673 12.5799 103.673 13.4475C103.673 14.315 103.022 14.7488 102.372 14.7488Z" fill="#00E5C3"/>
<path d="M137.074 76.5619C135.122 76.5619 133.604 78.0801 133.604 80.0321C133.604 81.3335 134.254 82.4179 135.339 83.0686C130.567 110.613 107.143 130.567 79.1644 131.001V133.17C108.228 132.736 132.519 112.132 137.508 83.5023C139.026 83.2854 140.327 81.7672 140.327 80.249C140.327 78.0801 138.809 76.5619 137.074 76.5619ZM137.074 81.1166C136.423 81.1166 135.772 80.6828 135.772 79.8152C135.772 79.1646 136.206 78.5139 137.074 78.5139C137.724 78.5139 138.375 78.9477 138.375 79.8152C138.158 80.6828 137.724 81.1166 137.074 81.1166Z" fill="#00E5C3"/>
<path d="M138.592 73.0916C138.592 73.7422 138.158 74.176 137.508 74.176C136.857 74.176 136.423 73.7422 136.423 73.0916C136.423 41.4258 110.83 15.8329 79.3813 15.3991V13.2302C111.915 13.664 138.592 40.3413 138.592 73.0916Z" fill="#00E5C3"/>
<path d="M96.7324 119.289C94.9973 119.289 93.4791 120.807 93.2622 122.542C88.7075 123.843 83.936 124.711 79.1644 124.711V126.88C84.1529 126.88 89.1413 126.012 93.9129 124.711C94.5635 125.579 95.648 126.229 96.7324 126.229C98.6844 126.229 100.203 124.711 100.203 122.759C100.203 120.807 98.6844 119.289 96.7324 119.289ZM96.7324 123.843C96.0818 123.843 95.4311 123.193 95.4311 122.542C95.4311 121.891 96.0818 121.241 96.7324 121.241C97.3831 121.241 98.0338 121.675 98.0338 122.542C98.0338 123.41 97.3831 123.843 96.7324 123.843Z" fill="#00E5C3"/>
<path d="M104.974 119.723C104.54 119.723 104.324 119.506 104.107 119.289C103.89 118.855 103.89 118.204 104.54 117.771C120.373 108.444 130.35 91.5271 130.35 73.0915C130.35 61.5964 126.663 50.752 119.723 41.8595C119.289 41.4257 119.506 40.7751 119.94 40.3413C120.373 39.9075 121.024 40.1244 121.458 40.5582C128.615 50.1013 132.519 61.3795 132.519 73.3084C132.519 92.3946 122.325 110.18 105.625 119.94C105.408 119.723 105.191 119.723 104.974 119.723Z" fill="#00E5C3"/>
<path d="M116.469 36.6542C116.252 36.8711 116.036 37.088 115.819 37.088C115.602 37.088 115.168 37.088 115.168 36.6542C105.625 27.1111 92.8284 21.6889 79.3813 21.472V19.3031C93.4791 19.52 106.709 24.9422 116.686 35.136C116.903 35.5698 116.903 36.2204 116.469 36.6542Z" fill="#00E5C3"/>
<path d="M126.229 73.0914C126.229 99.1181 105.191 120.373 79.3813 120.59V118.421C104.107 117.987 124.06 97.8168 124.06 73.0914C124.06 48.3661 104.107 27.9786 79.3813 27.7617V25.5928C105.191 25.8097 126.229 47.0648 126.229 73.0914Z" fill="#00E5C3"/>
<path d="M71.7902 27.328C73.7422 27.328 75.2604 25.8098 75.2604 23.8578V3.25333C75.2604 1.30133 73.7422 0 72.0071 0H66.8018C66.368 0 65.7173 0.433781 65.7173 0.867559L63.9822 12.7964C63.7653 14.0978 62.6809 15.3991 61.3796 15.616C60.9458 15.616 60.7289 15.8329 60.2951 15.8329C55.7404 16.7004 51.4027 18.2187 47.2818 20.1707C47.0649 20.3876 46.6311 20.3876 46.4142 20.6044C45.1129 21.2551 43.5947 21.0382 42.5102 19.9538L34.7022 11.9289C33.8347 10.8444 33.184 10.8444 32.7502 11.2782L24.2916 17.568C23.8578 17.7849 23.6409 18.4356 24.0747 18.8693L29.7138 29.28C30.3644 30.5813 30.1476 32.0996 29.28 33.184C29.0631 33.4009 28.8462 33.6178 28.6293 33.8347C26.0267 36.6542 23.6409 39.9076 21.472 43.3778C21.2551 43.5947 21.0382 44.0284 21.0382 44.2453C20.3876 45.5467 18.8693 46.1973 17.568 45.7636L6.72355 43.5947C5.42222 43.3778 4.77155 43.5947 4.77155 44.2453L1.30133 54.0053C1.08445 54.4391 1.30133 55.0898 1.73511 55.3067L12.3627 60.7289C13.664 61.3796 14.3147 62.8978 14.0978 64.1991C14.0978 64.416 14.0978 64.8498 13.8809 65.0667C13.4471 67.6693 13.4471 70.272 13.4471 73.0916C13.4471 75.0436 13.4471 76.7787 13.664 78.5138C13.664 78.9476 13.664 79.1644 13.664 79.5982C13.8809 81.1164 13.0133 82.4178 11.712 83.0684L0.433777 88.2738C0.216888 88.4907 0 88.7076 0 88.9244L3.25334 99.552C3.25334 99.7689 3.68711 99.9858 3.904 99.9858L16.0498 98.2507C16.9173 98.0338 18.0018 98.2507 18.6524 99.1182C19.9538 100.42 20.8213 102.372 21.6889 103.89C23.6409 107.143 26.0267 110.18 28.4124 112.999C29.4969 114.3 30.1476 115.602 29.4969 117.337L23.8578 127.964C23.6409 128.398 23.6409 129.049 24.0747 129.266L32.5333 135.339C32.9671 135.556 33.6178 135.556 34.0516 135.122L42.5102 126.663C43.5947 125.579 45.1129 125.362 46.4142 126.012C46.6311 126.229 47.0649 126.229 47.2818 126.446C51.4027 128.398 55.7404 129.7 60.0782 130.567C60.512 130.567 60.7289 130.784 61.1627 130.784C62.6809 131.001 63.7653 132.085 63.7653 133.604L65.5004 145.532C65.5004 145.966 65.9342 146.4 66.5849 146.4H71.5733C73.3084 146.4 74.8267 144.882 74.8267 143.147V121.458C74.8267 120.156 73.7422 119.072 72.6578 119.072C48.8 119.072 27.9787 101.287 25.8098 77.4293C23.6409 50.1013 45.1129 27.328 71.7902 27.328Z" fill="#00E5C3"/>
</svg>
