<svg width="64" height="64" viewBox="0 0 64 64" fill="none" xmlns="http://www.w3.org/2000/svg">
<path d="M64 32.3318C64 49.5881 50.3712 63.7155 33.7036 63.9051V62.957C49.9108 62.7673 63.0791 49.114 63.0791 32.3318C63.0791 28.7288 62.4345 25.1258 61.2374 21.8073C61.1453 21.5229 61.2374 21.3333 61.5137 21.2384C61.7899 21.1436 61.9741 21.2384 62.0662 21.5229C63.3554 24.9362 64 28.5392 64 32.3318Z" fill="#00E5C3"/>
<path d="M59.5799 15.0756C59.4878 15.0756 59.3957 15.0756 59.2115 15.0756C53.5943 5.97335 44.1094 0.474087 33.6115 0.379272V1.32742C43.741 1.42224 52.9496 6.73187 58.3827 15.5496C58.1986 15.8341 58.0144 16.1185 58.0144 16.4978C58.0144 17.3511 58.659 18.0148 59.4878 18.0148C60.3166 18.0148 60.9612 17.3511 60.9612 16.4978C60.9612 15.6445 60.4086 15.0756 59.5799 15.0756ZM59.5799 17.1615C59.3036 17.1615 59.0273 16.9719 59.0273 16.5926C59.0273 16.2133 59.3036 16.0237 59.5799 16.0237C59.8561 16.0237 60.1324 16.3082 60.1324 16.5926C60.1324 16.877 59.8561 17.1615 59.5799 17.1615Z" fill="#00E5C3"/>
<path d="M52.3971 53.4756C47.2403 58.406 40.6101 61.0608 33.7036 61.1556V60.2075C40.4259 60.1126 46.8719 57.4578 51.8446 52.8119C52.0288 52.6223 52.305 52.6223 52.4892 52.8119C52.5813 53.0015 52.5813 53.286 52.3971 53.4756Z" fill="#00E5C3"/>
<path d="M54.0547 51.4843C53.9626 51.4843 53.8705 51.4843 53.7784 51.3895C53.5943 51.1999 53.5943 50.9154 53.7784 50.7258C58.1065 45.6058 60.5928 39.0636 60.5928 32.3317C60.5928 21.8073 54.8835 12.231 45.7669 7.39541C45.5828 7.3006 45.4907 7.01615 45.5828 6.73171C45.6748 6.54208 45.9511 6.44726 46.2274 6.54208C55.7123 11.4725 61.6058 21.3332 61.6058 32.2369C61.6058 39.2532 59.1195 45.985 54.6072 51.2947C54.331 51.4843 54.2389 51.4843 54.0547 51.4843Z" fill="#00E5C3"/>
<path d="M43.4648 4.45642C43.0043 4.45642 42.636 4.64605 42.4518 4.93049C39.6892 3.98234 36.7425 3.41345 33.7036 3.41345V4.3616C36.5583 4.3616 39.3209 4.83567 41.9914 5.78382V5.87864C41.9914 6.73197 42.636 7.39568 43.4648 7.39568C44.2935 7.39568 44.9382 6.73197 44.9382 5.87864C44.8461 5.12012 44.2015 4.45642 43.4648 4.45642ZM43.4648 6.44753C43.1885 6.44753 42.9122 6.16308 42.9122 5.87864C42.9122 5.59419 43.1885 5.30975 43.4648 5.30975C43.741 5.30975 44.0173 5.49938 44.0173 5.87864C44.0173 6.2579 43.741 6.44753 43.4648 6.44753Z" fill="#00E5C3"/>
<path d="M58.1986 33.4697C57.3698 33.4697 56.7252 34.1334 56.7252 34.9868C56.7252 35.5557 57.0014 36.0297 57.4619 36.3142C55.436 48.3557 45.4907 57.0786 33.6115 57.2682V58.2164C45.9511 58.0268 56.2648 49.0194 58.3827 36.5038C59.0273 36.409 59.5799 35.7453 59.5799 35.0816C59.5799 34.1334 58.9353 33.4697 58.1986 33.4697ZM58.1986 35.4608C57.9223 35.4608 57.6461 35.2712 57.6461 34.8919C57.6461 34.6075 57.8302 34.3231 58.1986 34.3231C58.4748 34.3231 58.7511 34.5127 58.7511 34.8919C58.659 35.2712 58.4748 35.4608 58.1986 35.4608Z" fill="#00E5C3"/>
<path d="M58.8432 31.9526C58.8432 32.237 58.659 32.4267 58.3827 32.4267C58.1065 32.4267 57.9223 32.237 57.9223 31.9526C57.9223 18.1096 47.0561 6.92147 33.7036 6.73184V5.78369C47.5165 5.97332 58.8432 17.6355 58.8432 31.9526Z" fill="#00E5C3"/>
<path d="M41.0705 52.1481C40.3338 52.1481 39.6892 52.8118 39.5971 53.5703C37.6633 54.1392 35.6374 54.5184 33.6115 54.5184V55.4666C35.7295 55.4666 37.8475 55.0873 39.8734 54.5184C40.1496 54.8977 40.6101 55.1821 41.0705 55.1821C41.8993 55.1821 42.5439 54.5184 42.5439 53.6651C42.5439 52.8118 41.8993 52.1481 41.0705 52.1481ZM41.0705 54.1392C40.7942 54.1392 40.518 53.8547 40.518 53.5703C40.518 53.2858 40.7942 53.0014 41.0705 53.0014C41.3468 53.0014 41.623 53.191 41.623 53.5703C41.623 53.9496 41.3468 54.1392 41.0705 54.1392Z" fill="#00E5C3"/>
<path d="M44.5698 52.3378C44.3856 52.3378 44.2936 52.243 44.2015 52.1482C44.1094 51.9586 44.1094 51.6741 44.3856 51.4845C51.1079 47.4074 55.3439 40.0119 55.3439 31.9526C55.3439 26.9274 53.7785 22.1867 50.8317 18.2993C50.6475 18.1097 50.7396 17.8252 50.9238 17.6356C51.1079 17.446 51.3842 17.5408 51.5684 17.7304C54.6072 21.9023 56.2648 26.8326 56.2648 32.0474C56.2648 40.3911 51.9367 48.166 44.8461 52.4326C44.754 52.3378 44.6619 52.3378 44.5698 52.3378Z" fill="#00E5C3"/>
<path d="M49.4504 16.0237C49.3583 16.1185 49.2662 16.2133 49.1741 16.2133C49.082 16.2133 48.8978 16.2133 48.8978 16.0237C44.846 11.8518 39.4129 9.48144 33.7036 9.38662V8.43848C39.6892 8.53329 45.3065 10.9037 49.5424 15.36C49.6345 15.5496 49.6345 15.834 49.4504 16.0237Z" fill="#00E5C3"/>
<path d="M53.5942 31.9526C53.5942 43.3303 44.6619 52.6222 33.7036 52.717V51.7689C44.2014 51.5792 52.6734 42.7614 52.6734 31.9526C52.6734 21.1437 44.2014 12.2311 33.7036 12.1363V11.1881C44.6619 11.2829 53.5942 20.5748 53.5942 31.9526Z" fill="#00E5C3"/>
<path d="M30.4806 11.9467C31.3094 11.9467 31.954 11.283 31.954 10.4296V1.42222C31.954 0.568889 31.3094 0 30.5727 0H28.3626C28.1784 0 27.9022 0.189631 27.9022 0.379261L27.1655 5.59408C27.0734 6.16296 26.613 6.73185 26.0604 6.82667C25.8763 6.82667 25.7842 6.92148 25.6 6.92148C23.6662 7.30074 21.8245 7.96445 20.0748 8.81778C19.9827 8.91259 19.7986 8.91259 19.7065 9.00741C19.154 9.29185 18.5094 9.19704 18.0489 8.72296L14.7338 5.21481C14.3655 4.74074 14.0892 4.74074 13.905 4.93037L10.3137 7.68C10.1295 7.77482 10.0374 8.05926 10.2216 8.24889L12.6158 12.8C12.8921 13.3689 12.8 14.0326 12.4317 14.5067C12.3396 14.6015 12.2475 14.6963 12.1554 14.7911C11.0504 16.0237 10.0374 17.4459 9.11655 18.963C9.02446 19.0578 8.93238 19.2474 8.93238 19.3422C8.65612 19.9111 8.01151 20.1956 7.45899 20.0059L2.85468 19.0578C2.30216 18.963 2.0259 19.0578 2.0259 19.3422L0.552518 23.6089C0.460432 23.7985 0.552518 24.083 0.736691 24.1778L5.24892 26.5481C5.80144 26.8326 6.0777 27.4963 5.98561 28.0652C5.98561 28.16 5.98561 28.3496 5.89353 28.4444C5.70935 29.5822 5.70935 30.72 5.70935 31.9526C5.70935 32.8059 5.70935 33.5644 5.80144 34.323C5.80144 34.5126 5.80144 34.6074 5.80144 34.797C5.89353 35.4607 5.52518 36.0296 4.97266 36.3141L0.184173 38.5896C0.0920862 38.6844 0 38.7793 0 38.8741L1.3813 43.52C1.3813 43.6148 1.56547 43.7096 1.65755 43.7096L6.81439 42.9511C7.18274 42.8563 7.64317 42.9511 7.91943 43.3304C8.47194 43.8993 8.84029 44.7526 9.20864 45.4163C10.0374 46.8385 11.0504 48.1659 12.0633 49.3985C12.5237 49.9674 12.8 50.5363 12.5237 51.2948L10.1295 55.9407C10.0374 56.1304 10.0374 56.4148 10.2216 56.5096L13.813 59.1644C13.9971 59.2593 14.2734 59.2593 14.4576 59.0696L18.0489 55.3718C18.5094 54.8978 19.154 54.803 19.7065 55.0874C19.7986 55.1822 19.9827 55.1822 20.0748 55.277C21.8245 56.1304 23.6662 56.6993 25.5079 57.0785C25.6921 57.0785 25.7842 57.1733 25.9684 57.1733C26.613 57.2681 27.0734 57.7422 27.0734 58.4059L27.8101 63.6207C27.8101 63.8104 27.9943 64 28.2705 64H30.3885C31.1252 64 31.7698 63.3363 31.7698 62.5778V53.0963C31.7698 52.5274 31.3094 52.0533 30.8489 52.0533C20.7194 52.0533 11.8791 44.2785 10.9583 33.8489C10.0374 21.9022 19.154 11.9467 30.4806 11.9467Z" fill="#00E5C3"/>
</svg>
