<svg width="488" height="189" viewBox="0 0 488 189" fill="none" xmlns="http://www.w3.org/2000/svg">
<path d="M163.378 97.8792C163.378 137.353 131.278 169.669 92.0213 170.103V167.934C130.194 167.501 161.209 136.269 161.209 97.8792C161.209 89.6374 159.691 81.3957 156.871 73.8045C156.654 73.1539 156.871 72.7201 157.522 72.5032C158.172 72.2863 158.606 72.5032 158.823 73.1539C161.86 80.9619 163.378 89.2037 163.378 97.8792Z" fill="#00E5C3"/>
<path d="M152.967 58.4056C152.75 58.4056 152.533 58.4056 152.1 58.4056C138.869 37.5843 116.53 25.0047 91.8044 24.7878V26.9567C115.662 27.1736 137.351 39.3194 150.148 59.4901C149.714 60.1407 149.28 60.7914 149.28 61.659C149.28 63.611 150.798 65.1292 152.75 65.1292C154.702 65.1292 156.22 63.611 156.22 61.659C156.22 59.707 154.919 58.4056 152.967 58.4056ZM152.967 63.1772C152.316 63.1772 151.666 62.7434 151.666 61.8758C151.666 61.0083 152.316 60.5745 152.967 60.5745C153.618 60.5745 154.268 61.2252 154.268 61.8758C154.268 62.5265 153.618 63.1772 152.967 63.1772Z" fill="#00E5C3"/>
<path d="M136.05 146.245C123.904 157.524 108.288 163.597 92.0213 163.813V161.645C107.854 161.428 123.036 155.355 134.748 144.727C135.182 144.293 135.833 144.293 136.267 144.727C136.484 145.161 136.484 145.812 136.05 146.245Z" fill="#00E5C3"/>
<path d="M139.954 141.69C139.737 141.69 139.52 141.69 139.303 141.474C138.869 141.04 138.869 140.389 139.303 139.955C149.497 128.243 155.353 113.278 155.353 97.8789C155.353 73.8042 141.906 51.8985 120.434 40.8371C120 40.6202 119.783 39.9696 120 39.3189C120.217 38.8851 120.868 38.6682 121.518 38.8851C143.858 50.1634 157.739 72.7198 157.739 97.662C157.739 113.712 151.883 129.111 141.255 141.257C140.604 141.69 140.388 141.69 139.954 141.69Z" fill="#00E5C3"/>
<path d="M115.012 34.1142C113.927 34.1142 113.06 34.548 112.626 35.1986C106.119 33.0297 99.1787 31.7284 92.0214 31.7284V33.8973C98.7449 33.8973 105.252 34.9817 111.541 37.1506V37.3675C111.541 39.3195 113.06 40.8377 115.012 40.8377C116.964 40.8377 118.482 39.3195 118.482 37.3675C118.265 35.6324 116.747 34.1142 115.012 34.1142ZM115.012 38.6688C114.361 38.6688 113.71 38.0182 113.71 37.3675C113.71 36.7168 114.361 36.0662 115.012 36.0662C115.662 36.0662 116.313 36.5 116.313 37.3675C116.313 38.2351 115.662 38.6688 115.012 38.6688Z" fill="#00E5C3"/>
<path d="M149.714 100.482C147.762 100.482 146.244 102 146.244 103.952C146.244 105.253 146.894 106.338 147.979 106.989C143.207 134.533 119.783 154.487 91.8044 154.921V157.09C120.868 156.656 145.159 136.052 150.148 107.422C151.666 107.205 152.967 105.687 152.967 104.169C152.967 102 151.449 100.482 149.714 100.482ZM149.714 105.037C149.063 105.037 148.412 104.603 148.412 103.735C148.412 103.085 148.846 102.434 149.714 102.434C150.364 102.434 151.015 102.868 151.015 103.735C150.798 104.603 150.364 105.037 149.714 105.037Z" fill="#00E5C3"/>
<path d="M151.232 97.0116C151.232 97.6623 150.798 98.0961 150.148 98.0961C149.497 98.0961 149.063 97.6623 149.063 97.0116C149.063 65.3458 123.47 39.7529 92.0213 39.3192V37.1503C124.555 37.584 151.232 64.2614 151.232 97.0116Z" fill="#00E5C3"/>
<path d="M109.372 143.209C107.637 143.209 106.119 144.727 105.902 146.462C101.348 147.764 96.576 148.631 91.8044 148.631V150.8C96.7929 150.8 101.781 149.932 106.553 148.631C107.204 149.499 108.288 150.149 109.372 150.149C111.324 150.149 112.843 148.631 112.843 146.679C112.843 144.727 111.324 143.209 109.372 143.209ZM109.372 147.764C108.722 147.764 108.071 147.113 108.071 146.462C108.071 145.812 108.722 145.161 109.372 145.161C110.023 145.161 110.674 145.595 110.674 146.462C110.674 147.33 110.023 147.764 109.372 147.764Z" fill="#00E5C3"/>
<path d="M117.614 143.643C117.18 143.643 116.964 143.426 116.747 143.209C116.53 142.775 116.53 142.124 117.18 141.691C133.013 132.364 142.99 115.447 142.99 97.0116C142.99 85.5165 139.303 74.672 132.363 65.7796C131.929 65.3458 132.146 64.6951 132.58 64.2613C133.013 63.8276 133.664 64.0445 134.098 64.4782C141.255 74.0213 145.159 85.2996 145.159 97.2285C145.159 116.315 134.965 134.1 118.265 143.86C118.048 143.643 117.831 143.643 117.614 143.643Z" fill="#00E5C3"/>
<path d="M129.109 60.5744C128.892 60.7913 128.676 61.0082 128.459 61.0082C128.242 61.0082 127.808 61.0082 127.808 60.5744C118.265 51.0313 105.468 45.609 92.0213 45.3922V43.2233C106.119 43.4402 119.349 48.8624 129.326 59.0562C129.543 59.4899 129.543 60.1406 129.109 60.5744Z" fill="#00E5C3"/>
<path d="M138.869 97.0115C138.869 123.038 117.831 144.293 92.0213 144.51V142.341C116.747 141.908 136.7 121.737 136.7 97.0115C136.7 72.2862 116.747 51.8986 92.0213 51.6817V49.5128C117.831 49.7297 138.869 70.9848 138.869 97.0115Z" fill="#00E5C3"/>
<path d="M84.4302 51.248C86.3822 51.248 87.9005 49.7298 87.9005 47.7778V27.1734C87.9005 25.2214 86.3822 23.92 84.6471 23.92H79.4418C79.008 23.92 78.3573 24.3538 78.3573 24.7876L76.6222 36.7165C76.4053 38.0178 75.3209 39.3192 74.0196 39.536C73.5858 39.536 73.3689 39.7529 72.9351 39.7529C68.3804 40.6205 64.0427 42.1387 59.9218 44.0907C59.7049 44.3076 59.2711 44.3076 59.0542 44.5245C57.7529 45.1752 56.2347 44.9583 55.1502 43.8738L47.3422 35.8489C46.4747 34.7645 45.824 34.7645 45.3902 35.1983L36.9316 41.488C36.4978 41.7049 36.2809 42.3556 36.7147 42.7894L42.3538 53.2C43.0044 54.5014 42.7876 56.0196 41.92 57.104C41.7031 57.3209 41.4862 57.5378 41.2693 57.7547C38.6667 60.5743 36.2809 63.8276 34.112 67.2978C33.8951 67.5147 33.6782 67.9485 33.6782 68.1654C33.0276 69.4667 31.5093 70.1174 30.208 69.6836L19.3636 67.5147C18.0622 67.2978 17.4116 67.5147 17.4116 68.1654L13.9413 77.9254C13.7245 78.3592 13.9413 79.0098 14.3751 79.2267L25.0027 84.6489C26.304 85.2996 26.9547 86.8178 26.7378 88.1192C26.7378 88.336 26.7378 88.7698 26.5209 88.9867C26.0871 91.5894 26.0871 94.192 26.0871 97.0116C26.0871 98.9636 26.0871 100.699 26.304 102.434C26.304 102.868 26.304 103.084 26.304 103.518C26.5209 105.036 25.6533 106.338 24.352 106.988L13.0738 112.194C12.8569 112.411 12.64 112.628 12.64 112.844L15.8933 123.472C15.8933 123.689 16.3271 123.906 16.544 123.906L28.6898 122.171C29.5573 121.954 30.6418 122.171 31.2924 123.038C32.5938 124.34 33.4613 126.292 34.3289 127.81C36.2809 131.063 38.6667 134.1 41.0524 136.919C42.1369 138.22 42.7876 139.522 42.1369 141.257L36.4978 151.884C36.2809 152.318 36.2809 152.969 36.7147 153.186L45.1733 159.259C45.6071 159.476 46.2578 159.476 46.6916 159.042L55.1502 150.583C56.2347 149.499 57.7529 149.282 59.0542 149.932C59.2711 150.149 59.7049 150.149 59.9218 150.366C64.0427 152.318 68.3805 153.62 72.7182 154.487C73.152 154.487 73.3689 154.704 73.8027 154.704C75.3209 154.921 76.4053 156.005 76.4053 157.524L78.1405 169.452C78.1405 169.886 78.5742 170.32 79.2249 170.32H84.2133C85.9484 170.32 87.4667 168.802 87.4667 167.067V145.378C87.4667 144.076 86.3822 142.992 85.2978 142.992C61.44 142.992 40.6187 125.207 38.4498 101.349C36.2809 74.0214 57.7529 51.248 84.4302 51.248Z" fill="#00E5C3"/>
<path d="M476.347 95.9353H193.46C192.855 95.9353 192.364 96.3977 192.364 96.9682C192.364 97.5387 192.855 98.0011 193.46 98.0011H476.347C476.952 98.0011 477.443 97.5387 477.443 96.9682C477.443 96.3977 476.952 95.9353 476.347 95.9353Z" fill="url(#paint0_linear_3335_323)"/>
<path d="M213.104 74.4976H202.775L201.205 79.2489H192.694L203.313 50.1212H212.65L223.227 79.2489H214.674L213.104 74.4976ZM211.08 68.3002L207.94 58.8802L204.841 68.3002H211.08ZM234.377 56.6078V61.3591H243.673V67.5152H234.377V72.7623H244.913V79.2489H226.279V50.1212H244.913V56.6078H234.377ZM268.639 79.5381C265.251 79.5381 262.469 78.7393 260.293 77.1418C258.117 75.5167 256.946 73.203 256.781 70.2007H265.416C265.499 71.2199 265.802 71.9635 266.325 72.4318C266.848 72.9 267.523 73.1342 268.35 73.1342C269.093 73.1342 269.699 72.9551 270.167 72.5971C270.663 72.2114 270.911 71.6881 270.911 71.027C270.911 70.1732 270.512 69.5121 269.713 69.0439C268.914 68.5756 267.62 68.0523 265.829 67.4739C263.929 66.8404 262.386 66.2344 261.202 65.656C260.045 65.05 259.026 64.1824 258.145 63.0531C257.291 61.8962 256.864 60.3951 256.864 58.5497C256.864 56.6767 257.332 55.0791 258.268 53.757C259.205 52.4074 260.5 51.3883 262.152 50.6997C263.805 50.0111 265.678 49.6668 267.771 49.6668C271.159 49.6668 273.858 50.4655 275.869 52.0631C277.907 53.6331 278.995 55.8504 279.133 58.7149H270.333C270.305 57.8335 270.03 57.1725 269.506 56.7318C269.011 56.2911 268.363 56.0707 267.565 56.0707C266.959 56.0707 266.463 56.2497 266.077 56.6078C265.692 56.9659 265.499 57.4755 265.499 58.1365C265.499 58.6874 265.705 59.1694 266.118 59.5826C266.559 59.9682 267.096 60.3125 267.73 60.6155C268.363 60.8909 269.3 61.249 270.539 61.6897C272.385 62.3232 273.9 62.9567 275.084 63.5902C276.296 64.1962 277.329 65.0638 278.183 66.1931C279.064 67.2949 279.505 68.6996 279.505 70.4073C279.505 72.1426 279.064 73.6988 278.183 75.076C277.329 76.4532 276.076 77.5412 274.423 78.34C272.798 79.1387 270.87 79.5381 268.639 79.5381ZM308.637 56.0707L293.929 90.2802H285.129L290.665 78.2573L281.162 56.0707H290.169L295.044 69.2092L299.754 56.0707H308.637ZM321.043 79.5381C318.95 79.5381 317.077 79.1938 315.424 78.5052C313.799 77.7891 312.505 76.825 311.541 75.6131C310.604 74.3736 310.081 72.9827 309.971 71.4402H317.821C317.931 72.1839 318.275 72.7623 318.854 73.1755C319.432 73.5886 320.148 73.7952 321.002 73.7952C321.663 73.7952 322.186 73.6575 322.572 73.3821C322.958 73.1066 323.15 72.7485 323.15 72.3078C323.15 71.7294 322.834 71.3025 322.2 71.027C321.567 70.7516 320.52 70.4486 319.06 70.1181C317.408 69.7876 316.03 69.4157 314.929 69.0026C313.827 68.5894 312.863 67.9146 312.037 66.9781C311.238 66.0416 310.838 64.7746 310.838 63.177C310.838 61.7998 311.21 60.5604 311.954 59.4586C312.698 58.3293 313.786 57.4341 315.218 56.7731C316.678 56.112 318.427 55.7815 320.465 55.7815C323.495 55.7815 325.877 56.5252 327.613 58.0126C329.348 59.4999 330.353 61.4555 330.629 63.8794H323.316C323.178 63.1357 322.848 62.5711 322.324 62.1855C321.828 61.7723 321.154 61.5657 320.3 61.5657C319.639 61.5657 319.129 61.6897 318.771 61.9376C318.44 62.1855 318.275 62.5298 318.275 62.9705C318.275 63.5213 318.592 63.9483 319.225 64.2513C319.859 64.5267 320.878 64.8159 322.283 65.1189C323.963 65.477 325.354 65.8763 326.456 66.317C327.585 66.7577 328.563 67.4739 329.389 68.4655C330.243 69.4295 330.67 70.7516 330.67 72.4318C330.67 73.7814 330.271 74.9934 329.472 76.0676C328.701 77.1418 327.585 77.9957 326.125 78.6292C324.693 79.2351 322.999 79.5381 321.043 79.5381ZM348.74 72.3492V79.2489H345.228C339.306 79.2489 336.345 76.3155 336.345 70.4486V62.8052H333.494V56.0707H336.345V50.4518H344.484V56.0707H348.699V62.8052H344.484V70.5726C344.484 71.2061 344.622 71.6606 344.897 71.936C345.2 72.2114 345.696 72.3492 346.385 72.3492H348.74ZM375.013 67.3913C375.013 68.0248 374.971 68.6583 374.889 69.2918H359.56C359.643 70.5588 359.987 71.5091 360.593 72.1426C361.227 72.7485 362.026 73.0515 362.99 73.0515C364.339 73.0515 365.303 72.4456 365.882 71.2336H374.517C374.159 72.8312 373.456 74.2635 372.41 75.5305C371.39 76.77 370.096 77.7478 368.526 78.4639C366.956 79.18 365.221 79.5381 363.32 79.5381C361.034 79.5381 358.996 79.0561 357.205 78.0921C355.443 77.128 354.052 75.7508 353.032 73.9605C352.041 72.1701 351.545 70.063 351.545 67.6391C351.545 65.2153 352.041 63.122 353.032 61.3591C354.024 59.5688 355.401 58.1916 357.164 57.2276C358.954 56.2635 361.006 55.7815 363.32 55.7815C365.606 55.7815 367.631 56.2497 369.394 57.1862C371.156 58.1227 372.534 59.4724 373.525 61.2352C374.517 62.9705 375.013 65.0225 375.013 67.3913ZM366.749 65.3668C366.749 64.3752 366.419 63.604 365.758 63.0531C365.097 62.4747 364.27 62.1855 363.279 62.1855C362.287 62.1855 361.475 62.4609 360.841 63.0118C360.208 63.5351 359.795 64.3201 359.602 65.3668H366.749ZM409.024 55.8641C411.944 55.8641 414.23 56.7455 415.883 58.5083C417.563 60.2712 418.403 62.6812 418.403 65.7386V79.2489H410.305V66.8128C410.305 65.5734 409.961 64.6093 409.272 63.9207C408.583 63.2321 407.647 62.8878 406.463 62.8878C405.278 62.8878 404.342 63.2321 403.653 63.9207C402.965 64.6093 402.62 65.5734 402.62 66.8128V79.2489H394.522V66.8128C394.522 65.5734 394.178 64.6093 393.489 63.9207C392.828 63.2321 391.906 62.8878 390.721 62.8878C389.509 62.8878 388.559 63.2321 387.87 63.9207C387.182 64.6093 386.838 65.5734 386.838 66.8128V79.2489H378.74V56.0707H386.838V59.1281C387.554 58.1365 388.476 57.3515 389.606 56.7731C390.763 56.1671 392.085 55.8641 393.572 55.8641C395.28 55.8641 396.795 56.236 398.117 56.9797C399.466 57.7233 400.527 58.77 401.298 60.1197C402.124 58.8526 403.212 57.8335 404.562 57.0623C405.912 56.2635 407.399 55.8641 409.024 55.8641ZM433.127 79.5381C431.034 79.5381 429.161 79.1938 427.508 78.5052C425.883 77.7891 424.589 76.825 423.624 75.6131C422.688 74.3736 422.165 72.9827 422.054 71.4402H429.904C430.015 72.1839 430.359 72.7623 430.937 73.1755C431.516 73.5886 432.232 73.7952 433.086 73.7952C433.747 73.7952 434.27 73.6575 434.656 73.3821C435.041 73.1066 435.234 72.7485 435.234 72.3078C435.234 71.7294 434.917 71.3025 434.284 71.027C433.65 70.7516 432.604 70.4486 431.144 70.1181C429.491 69.7876 428.114 69.4157 427.012 69.0026C425.911 68.5894 424.947 67.9146 424.12 66.9781C423.321 66.0416 422.922 64.7746 422.922 63.177C422.922 61.7998 423.294 60.5604 424.038 59.4586C424.781 58.3293 425.869 57.4341 427.302 56.7731C428.761 56.112 430.51 55.7815 432.549 55.7815C435.579 55.7815 437.961 56.5252 439.696 58.0126C441.432 59.4999 442.437 61.4555 442.712 63.8794H435.399C435.262 63.1357 434.931 62.5711 434.408 62.1855C433.912 61.7723 433.237 61.5657 432.383 61.5657C431.722 61.5657 431.213 61.6897 430.855 61.9376C430.524 62.1855 430.359 62.5298 430.359 62.9705C430.359 63.5213 430.676 63.9483 431.309 64.2513C431.943 64.5267 432.962 64.8159 434.367 65.1189C436.047 65.477 437.438 65.8763 438.539 66.317C439.669 66.7577 440.647 67.4739 441.473 68.4655C442.327 69.4295 442.754 70.7516 442.754 72.4318C442.754 73.7814 442.354 74.9934 441.556 76.0676C440.784 77.1418 439.669 77.9957 438.209 78.6292C436.777 79.2351 435.083 79.5381 433.127 79.5381Z" fill="white"/>
<path d="M208.56 110.838V125.133H206.68V114.473L201.929 125.133H200.606L195.834 114.453V125.133H193.955V110.838H195.979L201.267 122.654L206.556 110.838H208.56ZM211.872 119.431C211.872 118.274 212.106 117.262 212.574 116.395C213.042 115.513 213.683 114.831 214.495 114.349C215.322 113.867 216.237 113.626 217.243 113.626C218.234 113.626 219.095 113.84 219.825 114.267C220.555 114.694 221.099 115.231 221.457 115.878V113.812H223.358V125.133H221.457V123.026C221.085 123.687 220.527 124.238 219.784 124.678C219.054 125.105 218.2 125.319 217.222 125.319C216.217 125.319 215.308 125.071 214.495 124.575C213.683 124.079 213.042 123.384 212.574 122.489C212.106 121.593 211.872 120.574 211.872 119.431ZM221.457 119.452C221.457 118.598 221.285 117.854 220.941 117.221C220.596 116.587 220.128 116.105 219.536 115.775C218.957 115.43 218.317 115.258 217.615 115.258C216.912 115.258 216.272 115.424 215.693 115.754C215.115 116.085 214.654 116.567 214.309 117.2C213.965 117.834 213.793 118.577 213.793 119.431C213.793 120.299 213.965 121.056 214.309 121.704C214.654 122.337 215.115 122.826 215.693 123.17C216.272 123.501 216.912 123.666 217.615 123.666C218.317 123.666 218.957 123.501 219.536 123.17C220.128 122.826 220.596 122.337 220.941 121.704C221.285 121.056 221.457 120.306 221.457 119.452ZM233.682 125.133L229.241 120.134V125.133H227.361V109.846H229.241V118.832L233.599 113.812H236.223L230.893 119.452L236.244 125.133H233.682ZM249.148 119.039C249.148 119.397 249.127 119.776 249.086 120.175H240.037C240.106 121.29 240.485 122.165 241.174 122.798C241.876 123.418 242.723 123.728 243.714 123.728C244.527 123.728 245.202 123.542 245.739 123.17C246.29 122.785 246.675 122.275 246.896 121.642H248.92C248.617 122.73 248.011 123.618 247.102 124.306C246.193 124.981 245.064 125.319 243.714 125.319C242.64 125.319 241.676 125.078 240.822 124.596C239.982 124.114 239.321 123.432 238.839 122.551C238.357 121.655 238.116 120.622 238.116 119.452C238.116 118.281 238.35 117.255 238.819 116.374C239.287 115.492 239.941 114.818 240.781 114.349C241.635 113.867 242.613 113.626 243.714 113.626C244.789 113.626 245.739 113.86 246.565 114.329C247.392 114.797 248.025 115.444 248.466 116.271C248.92 117.083 249.148 118.006 249.148 119.039ZM247.206 118.646C247.206 117.93 247.047 117.317 246.731 116.808C246.414 116.284 245.98 115.892 245.429 115.63C244.892 115.355 244.293 115.217 243.632 115.217C242.682 115.217 241.869 115.52 241.194 116.126C240.533 116.732 240.154 117.572 240.058 118.646H247.206ZM260.669 112.263V117.076H265.916V118.626H260.669V123.583H266.536V125.133H258.789V110.714H266.536V112.263H260.669ZM274.421 123.398L277.933 113.812H279.936L275.495 125.133H273.305L268.864 113.812H270.888L274.421 123.398ZM292.942 119.039C292.942 119.397 292.921 119.776 292.88 120.175H283.831C283.9 121.29 284.279 122.165 284.968 122.798C285.67 123.418 286.517 123.728 287.508 123.728C288.321 123.728 288.996 123.542 289.533 123.17C290.084 122.785 290.469 122.275 290.69 121.642H292.714C292.411 122.73 291.805 123.618 290.896 124.306C289.987 124.981 288.858 125.319 287.508 125.319C286.434 125.319 285.47 125.078 284.616 124.596C283.776 124.114 283.115 123.432 282.633 122.551C282.151 121.655 281.91 120.622 281.91 119.452C281.91 118.281 282.144 117.255 282.613 116.374C283.081 115.492 283.735 114.818 284.575 114.349C285.429 113.867 286.407 113.626 287.508 113.626C288.583 113.626 289.533 113.86 290.359 114.329C291.186 114.797 291.819 115.444 292.26 116.271C292.714 117.083 292.942 118.006 292.942 119.039ZM291 118.646C291 117.93 290.841 117.317 290.525 116.808C290.208 116.284 289.774 115.892 289.223 115.63C288.686 115.355 288.087 115.217 287.426 115.217C286.476 115.217 285.663 115.52 284.988 116.126C284.327 116.732 283.948 117.572 283.852 118.646H291ZM298.129 115.651C298.46 115.004 298.928 114.501 299.534 114.143C300.154 113.785 300.904 113.606 301.786 113.606V115.548H301.29C299.183 115.548 298.129 116.691 298.129 118.977V125.133H296.249V113.812H298.129V115.651ZM314.532 113.812L307.715 130.463H305.773L308.005 125.009L303.439 113.812H305.526L309.079 122.984L312.591 113.812H314.532ZM319.541 115.362V122.034C319.541 122.585 319.659 122.978 319.893 123.212C320.127 123.432 320.533 123.542 321.111 123.542H322.496V125.133H320.802C319.755 125.133 318.97 124.892 318.447 124.41C317.923 123.928 317.662 123.136 317.662 122.034V115.362H316.195V113.812H317.662V110.961H319.541V113.812H322.496V115.362H319.541ZM331.219 113.606C332.072 113.606 332.844 113.792 333.532 114.163C334.221 114.522 334.758 115.066 335.144 115.795C335.543 116.525 335.743 117.414 335.743 118.46V125.133H333.883V118.729C333.883 117.6 333.601 116.739 333.036 116.147C332.472 115.541 331.701 115.238 330.723 115.238C329.731 115.238 328.939 115.548 328.347 116.167C327.769 116.787 327.479 117.689 327.479 118.873V125.133H325.6V109.846H327.479V115.424C327.851 114.845 328.361 114.398 329.008 114.081C329.669 113.764 330.406 113.606 331.219 113.606ZM340.611 111.974C340.253 111.974 339.95 111.85 339.702 111.602C339.454 111.354 339.33 111.051 339.33 110.693C339.33 110.335 339.454 110.032 339.702 109.784C339.95 109.536 340.253 109.412 340.611 109.412C340.955 109.412 341.244 109.536 341.478 109.784C341.726 110.032 341.85 110.335 341.85 110.693C341.85 111.051 341.726 111.354 341.478 111.602C341.244 111.85 340.955 111.974 340.611 111.974ZM341.52 113.812V125.133H339.64V113.812H341.52ZM351.065 113.606C352.443 113.606 353.558 114.026 354.412 114.866C355.266 115.692 355.693 116.89 355.693 118.46V125.133H353.834V118.729C353.834 117.6 353.551 116.739 352.987 116.147C352.422 115.541 351.651 115.238 350.673 115.238C349.681 115.238 348.889 115.548 348.297 116.167C347.719 116.787 347.43 117.689 347.43 118.873V125.133H345.55V113.812H347.43V115.424C347.802 114.845 348.304 114.398 348.938 114.081C349.585 113.764 350.294 113.606 351.065 113.606ZM364.259 113.626C365.236 113.626 366.09 113.84 366.82 114.267C367.564 114.694 368.115 115.231 368.473 115.878V113.812H370.373V125.381C370.373 126.414 370.153 127.329 369.712 128.128C369.272 128.941 368.638 129.574 367.812 130.029C366.999 130.483 366.049 130.71 364.961 130.71C363.474 130.71 362.234 130.359 361.243 129.657C360.251 128.955 359.666 127.997 359.487 126.785H361.346C361.552 127.474 361.979 128.025 362.627 128.438C363.274 128.865 364.052 129.078 364.961 129.078C365.994 129.078 366.834 128.755 367.481 128.108C368.142 127.46 368.473 126.551 368.473 125.381V123.005C368.101 123.666 367.55 124.217 366.82 124.658C366.09 125.098 365.236 125.319 364.259 125.319C363.253 125.319 362.337 125.071 361.511 124.575C360.699 124.079 360.058 123.384 359.59 122.489C359.122 121.593 358.888 120.574 358.888 119.431C358.888 118.274 359.122 117.262 359.59 116.395C360.058 115.513 360.699 114.831 361.511 114.349C362.337 113.867 363.253 113.626 364.259 113.626ZM368.473 119.452C368.473 118.598 368.301 117.854 367.956 117.221C367.612 116.587 367.144 116.105 366.552 115.775C365.973 115.43 365.333 115.258 364.63 115.258C363.928 115.258 363.288 115.424 362.709 115.754C362.131 116.085 361.669 116.567 361.325 117.2C360.981 117.834 360.809 118.577 360.809 119.431C360.809 120.299 360.981 121.056 361.325 121.704C361.669 122.337 362.131 122.826 362.709 123.17C363.288 123.501 363.928 123.666 364.63 123.666C365.333 123.666 365.973 123.501 366.552 123.17C367.144 122.826 367.612 122.337 367.956 121.704C368.301 121.056 368.473 120.306 368.473 119.452ZM387.92 117.717C388.443 117.799 388.918 118.013 389.345 118.357C389.786 118.701 390.13 119.128 390.378 119.638C390.64 120.147 390.771 120.691 390.771 121.27C390.771 122 390.585 122.661 390.213 123.253C389.841 123.831 389.297 124.293 388.581 124.637C387.879 124.968 387.045 125.133 386.081 125.133H380.71V110.734H385.875C386.853 110.734 387.686 110.9 388.374 111.23C389.063 111.547 389.579 111.981 389.924 112.531C390.268 113.082 390.44 113.702 390.44 114.391C390.44 115.245 390.206 115.954 389.738 116.518C389.283 117.069 388.677 117.469 387.92 117.717ZM382.59 116.952H385.751C386.632 116.952 387.314 116.746 387.796 116.333C388.278 115.919 388.519 115.348 388.519 114.618C388.519 113.888 388.278 113.316 387.796 112.903C387.314 112.49 386.618 112.284 385.709 112.284H382.59V116.952ZM385.916 123.583C386.853 123.583 387.582 123.363 388.106 122.922C388.629 122.482 388.891 121.869 388.891 121.084C388.891 120.285 388.615 119.658 388.064 119.204C387.514 118.736 386.777 118.502 385.854 118.502H382.59V123.583H385.916ZM404.535 119.039C404.535 119.397 404.514 119.776 404.473 120.175H395.424C395.493 121.29 395.872 122.165 396.561 122.798C397.263 123.418 398.11 123.728 399.102 123.728C399.914 123.728 400.589 123.542 401.126 123.17C401.677 122.785 402.063 122.275 402.283 121.642H404.307C404.004 122.73 403.398 123.618 402.489 124.306C401.581 124.981 400.451 125.319 399.102 125.319C398.027 125.319 397.063 125.078 396.209 124.596C395.369 124.114 394.708 123.432 394.226 122.551C393.744 121.655 393.503 120.622 393.503 119.452C393.503 118.281 393.737 117.255 394.206 116.374C394.674 115.492 395.328 114.818 396.168 114.349C397.022 113.867 398 113.626 399.102 113.626C400.176 113.626 401.126 113.86 401.952 114.329C402.779 114.797 403.412 115.444 403.853 116.271C404.307 117.083 404.535 118.006 404.535 119.039ZM402.593 118.646C402.593 117.93 402.434 117.317 402.118 116.808C401.801 116.284 401.367 115.892 400.816 115.63C400.279 115.355 399.68 115.217 399.019 115.217C398.069 115.217 397.256 115.52 396.581 116.126C395.92 116.732 395.542 117.572 395.445 118.646H402.593ZM410.135 115.362V122.034C410.135 122.585 410.252 122.978 410.487 123.212C410.721 123.432 411.127 123.542 411.705 123.542H413.089V125.133H411.395C410.349 125.133 409.564 124.892 409.04 124.41C408.517 123.928 408.255 123.136 408.255 122.034V115.362H406.789V113.812H408.255V110.961H410.135V113.812H413.089V115.362H410.135ZM418.486 115.362V122.034C418.486 122.585 418.604 122.978 418.838 123.212C419.072 123.432 419.478 123.542 420.056 123.542H421.441V125.133H419.747C418.7 125.133 417.915 124.892 417.392 124.41C416.868 123.928 416.607 123.136 416.607 122.034V115.362H415.14V113.812H416.607V110.961H418.486V113.812H421.441V115.362H418.486ZM434.874 119.039C434.874 119.397 434.853 119.776 434.812 120.175H425.763C425.832 121.29 426.211 122.165 426.9 122.798C427.602 123.418 428.449 123.728 429.44 123.728C430.253 123.728 430.928 123.542 431.465 123.17C432.016 122.785 432.401 122.275 432.622 121.642H434.646C434.343 122.73 433.737 123.618 432.828 124.306C431.919 124.981 430.79 125.319 429.44 125.319C428.366 125.319 427.402 125.078 426.548 124.596C425.708 124.114 425.047 123.432 424.565 122.551C424.083 121.655 423.842 120.622 423.842 119.452C423.842 118.281 424.076 117.255 424.545 116.374C425.013 115.492 425.667 114.818 426.507 114.349C427.361 113.867 428.339 113.626 429.44 113.626C430.515 113.626 431.465 113.86 432.291 114.329C433.118 114.797 433.751 115.444 434.192 116.271C434.646 117.083 434.874 118.006 434.874 119.039ZM432.932 118.646C432.932 117.93 432.773 117.317 432.457 116.808C432.14 116.284 431.706 115.892 431.155 115.63C430.618 115.355 430.019 115.217 429.358 115.217C428.408 115.217 427.595 115.52 426.92 116.126C426.259 116.732 425.88 117.572 425.784 118.646H432.932ZM440.061 115.651C440.392 115.004 440.86 114.501 441.466 114.143C442.086 113.785 442.836 113.606 443.718 113.606V115.548H443.222C441.115 115.548 440.061 116.691 440.061 118.977V125.133H438.181V113.812H440.061V115.651Z" fill="#00E5C3"/>
<path d="M177.903 157.601V36.4146C177.903 35.5428 177.49 34.9615 176.87 34.9615C176.251 34.9615 175.838 35.5428 175.838 36.4146V157.456C175.838 158.328 176.251 158.909 176.87 158.909C177.49 158.909 177.903 158.328 177.903 157.601Z" fill="#00E5C3"/>
<defs>
<linearGradient id="paint0_linear_3335_323" x1="192.364" y1="95.9353" x2="477.443" y2="95.9353" gradientUnits="userSpaceOnUse">
<stop stop-color="#00E5C3"/>
<stop offset="1" stop-color="#00C2FF"/>
</linearGradient>
</defs>
</svg>
