<svg width="1200" height="630" viewBox="0 0 1200 630" fill="none" xmlns="http://www.w3.org/2000/svg">
  <defs>
    <!-- Background gradient -->
    <linearGradient id="bgGrad" x1="0" y1="0" x2="1200" y2="630" gradientUnits="userSpaceOnUse">
      <stop offset="0%" stop-color="#0A0F1E"/>
      <stop offset="55%" stop-color="#0D1B2A"/>
      <stop offset="100%" stop-color="#112233"/>
    </linearGradient>
    <!-- Right panel gradient -->
    <linearGradient id="panelGrad" x1="750" y1="0" x2="1200" y2="630" gradientUnits="userSpaceOnUse">
      <stop offset="0%" stop-color="#0D1B2A" stop-opacity="0"/>
      <stop offset="100%" stop-color="#1B3A5C" stop-opacity="0.5"/>
    </linearGradient>
    <!-- Top accent gradient -->
    <linearGradient id="accentGrad" x1="0" y1="0" x2="1200" y2="0" gradientUnits="userSpaceOnUse">
      <stop offset="0%" stop-color="#00E5C3"/>
      <stop offset="60%" stop-color="#00C2FF"/>
      <stop offset="100%" stop-color="#00C2FF" stop-opacity="0"/>
    </linearGradient>
    <!-- Teal glow -->
    <radialGradient id="tealGlow" cx="900" cy="315" r="280" gradientUnits="userSpaceOnUse">
      <stop offset="0%" stop-color="#00E5C3" stop-opacity="0.12"/>
      <stop offset="60%" stop-color="#00C2FF" stop-opacity="0.05"/>
      <stop offset="100%" stop-color="#00C2FF" stop-opacity="0"/>
    </radialGradient>
    <!-- Cyan glow bottom left -->
    <radialGradient id="cyanGlow" cx="120" cy="580" r="200" gradientUnits="userSpaceOnUse">
      <stop offset="0%" stop-color="#00C2FF" stop-opacity="0.08"/>
      <stop offset="100%" stop-color="#00C2FF" stop-opacity="0"/>
    </radialGradient>
    <!-- Stat box gradient -->
    <linearGradient id="statGrad" x1="0" y1="0" x2="0" y2="1" gradientUnits="objectBoundingBox">
      <stop offset="0%" stop-color="#1B3A5C" stop-opacity="0.6"/>
      <stop offset="100%" stop-color="#0D1B2A" stop-opacity="0.8"/>
    </linearGradient>
    <!-- clip for rounded corners on whole SVG -->
    <clipPath id="roundedCard">
      <rect width="1200" height="630" rx="0"/>
    </clipPath>
  </defs>

  <!-- ── BACKGROUND ── -->
  <rect width="1200" height="630" fill="url(#bgGrad)"/>
  
  <!-- Grid overlay -->
  <g opacity="0.04" stroke="#00C2FF" stroke-width="0.8">
    <!-- Vertical lines every 60px -->
    <line x1="60" y1="0" x2="60" y2="630"/>
    <line x1="120" y1="0" x2="120" y2="630"/>
    <line x1="180" y1="0" x2="180" y2="630"/>
    <line x1="240" y1="0" x2="240" y2="630"/>
    <line x1="300" y1="0" x2="300" y2="630"/>
    <line x1="360" y1="0" x2="360" y2="630"/>
    <line x1="420" y1="0" x2="420" y2="630"/>
    <line x1="480" y1="0" x2="480" y2="630"/>
    <line x1="540" y1="0" x2="540" y2="630"/>
    <line x1="600" y1="0" x2="600" y2="630"/>
    <line x1="660" y1="0" x2="660" y2="630"/>
    <line x1="720" y1="0" x2="720" y2="630"/>
    <line x1="780" y1="0" x2="780" y2="630"/>
    <line x1="840" y1="0" x2="840" y2="630"/>
    <line x1="900" y1="0" x2="900" y2="630"/>
    <line x1="960" y1="0" x2="960" y2="630"/>
    <line x1="1020" y1="0" x2="1020" y2="630"/>
    <line x1="1080" y1="0" x2="1080" y2="630"/>
    <line x1="1140" y1="0" x2="1140" y2="630"/>
    <!-- Horizontal lines every 60px -->
    <line x1="0" y1="60" x2="1200" y2="60"/>
    <line x1="0" y1="120" x2="1200" y2="120"/>
    <line x1="0" y1="180" x2="1200" y2="180"/>
    <line x1="0" y1="240" x2="1200" y2="240"/>
    <line x1="0" y1="300" x2="1200" y2="300"/>
    <line x1="0" y1="360" x2="1200" y2="360"/>
    <line x1="0" y1="420" x2="1200" y2="420"/>
    <line x1="0" y1="480" x2="1200" y2="480"/>
    <line x1="0" y1="540" x2="1200" y2="540"/>
  </g>

  <!-- Glow orbs -->
  <circle cx="900" cy="315" r="280" fill="url(#tealGlow)"/>
  <circle cx="120" cy="580" r="200" fill="url(#cyanGlow)"/>
  
  <!-- Right panel overlay -->
  <rect x="680" y="0" width="520" height="630" fill="url(#panelGrad)"/>

  <!-- Diagonal accent line -->
  <line x1="680" y1="0" x2="680" y2="630" stroke="rgba(0,194,255,0.12)" stroke-width="1"/>

  <!-- ── TOP ACCENT BAR ── -->
  <rect x="0" y="0" width="1200" height="4" fill="url(#accentGrad)"/>

  <!-- ── LOGO — top left ── -->
  <!-- Place logo at 60,44 scaled to fit nicely — logo is 488×189, scale to ~300×116 -->
  <g transform="translate(60, 38) scale(0.615)">
    <path d="M163.378 97.8792C163.378 137.353 131.278 169.669 92.0213 170.103V167.934C130.194 167.501 161.209 136.269 161.209 97.8792C161.209 89.6374 159.691 81.3957 156.871 73.8045C156.654 73.1539 156.871 72.7201 157.522 72.5032C158.172 72.2863 158.606 72.5032 158.823 73.1539C161.86 80.9619 163.378 89.2037 163.378 97.8792Z" fill="#00E5C3"/>
<path d="M152.967 58.4056C152.75 58.4056 152.533 58.4056 152.1 58.4056C138.869 37.5843 116.53 25.0047 91.8044 24.7878V26.9567C115.662 27.1736 137.351 39.3194 150.148 59.4901C149.714 60.1407 149.28 60.7914 149.28 61.659C149.28 63.611 150.798 65.1292 152.75 65.1292C154.702 65.1292 156.22 63.611 156.22 61.659C156.22 59.707 154.919 58.4056 152.967 58.4056ZM152.967 63.1772C152.316 63.1772 151.666 62.7434 151.666 61.8758C151.666 61.0083 152.316 60.5745 152.967 60.5745C153.618 60.5745 154.268 61.2252 154.268 61.8758C154.268 62.5265 153.618 63.1772 152.967 63.1772Z" fill="#00E5C3"/>
<path d="M136.05 146.245C123.904 157.524 108.288 163.597 92.0213 163.813V161.645C107.854 161.428 123.036 155.355 134.748 144.727C135.182 144.293 135.833 144.293 136.267 144.727C136.484 145.161 136.484 145.812 136.05 146.245Z" fill="#00E5C3"/>
<path d="M139.954 141.691C139.737 141.691 139.52 141.691 139.303 141.474C138.869 141.04 138.869 140.389 139.303 139.956C149.497 128.244 155.353 113.278 155.353 97.8792C155.353 73.8045 141.906 51.8987 120.434 40.8374C120 40.6205 119.783 39.9698 120 39.3192C120.217 38.8854 120.868 38.6685 121.518 38.8854C143.858 50.1636 157.739 72.72 157.739 97.6623C157.739 113.712 151.883 129.111 141.255 141.257C140.604 141.691 140.388 141.691 139.954 141.691Z" fill="#00E5C3"/>
<path d="M115.012 34.1143C113.927 34.1143 113.06 34.5481 112.626 35.1987C106.119 33.0298 99.1787 31.7285 92.0214 31.7285V33.8974C98.7449 33.8974 105.252 34.9818 111.541 37.1507V37.3676C111.541 39.3196 113.06 40.8379 115.012 40.8379C116.964 40.8379 118.482 39.3196 118.482 37.3676C118.265 35.6325 116.747 34.1143 115.012 34.1143ZM115.012 38.669C114.361 38.669 113.71 38.0183 113.71 37.3676C113.71 36.717 114.361 36.0663 115.012 36.0663C115.662 36.0663 116.313 36.5001 116.313 37.3676C116.313 38.2352 115.662 38.669 115.012 38.669Z" fill="#00E5C3"/>
<path d="M149.714 100.482C147.762 100.482 146.244 102 146.244 103.952C146.244 105.253 146.894 106.338 147.979 106.989C143.207 134.533 119.783 154.487 91.8044 154.921V157.09C120.868 156.656 145.159 136.052 150.148 107.422C151.666 107.205 152.967 105.687 152.967 104.169C152.967 102 151.449 100.482 149.714 100.482ZM149.714 105.037C149.063 105.037 148.412 104.603 148.412 103.735C148.412 103.085 148.846 102.434 149.714 102.434C150.364 102.434 151.015 102.868 151.015 103.735C150.798 104.603 150.364 105.037 149.714 105.037Z" fill="#00E5C3"/>
<path d="M151.232 97.0115C151.232 97.6622 150.798 98.0959 150.148 98.0959C149.497 98.0959 149.063 97.6622 149.063 97.0115C149.063 65.3457 123.47 39.7528 92.0213 39.319V37.1501C124.555 37.5839 151.232 64.2613 151.232 97.0115Z" fill="#00E5C3"/>
<path d="M109.372 143.209C107.637 143.209 106.119 144.727 105.902 146.462C101.348 147.764 96.576 148.631 91.8044 148.631V150.8C96.7929 150.8 101.781 149.932 106.553 148.631C107.204 149.499 108.288 150.149 109.372 150.149C111.324 150.149 112.843 148.631 112.843 146.679C112.843 144.727 111.324 143.209 109.372 143.209ZM109.372 147.764C108.722 147.764 108.071 147.113 108.071 146.462C108.071 145.812 108.722 145.161 109.372 145.161C110.023 145.161 110.674 145.595 110.674 146.462C110.674 147.33 110.023 147.764 109.372 147.764Z" fill="#00E5C3"/>
<path d="M117.614 143.643C117.18 143.643 116.964 143.426 116.747 143.209C116.53 142.775 116.53 142.124 117.18 141.691C133.013 132.364 142.99 115.447 142.99 97.0116C142.99 85.5165 139.303 74.672 132.363 65.7796C131.929 65.3458 132.146 64.6951 132.58 64.2613C133.013 63.8276 133.664 64.0445 134.098 64.4782C141.255 74.0213 145.159 85.2996 145.159 97.2285C145.159 116.315 134.965 134.1 118.265 143.86C118.048 143.643 117.831 143.643 117.614 143.643Z" fill="#00E5C3"/>
<path d="M129.109 60.5743C128.892 60.7911 128.676 61.008 128.459 61.008C128.242 61.008 127.808 61.008 127.808 60.5743C118.265 51.0311 105.468 45.6089 92.0213 45.392V43.2231C106.119 43.44 119.349 48.8623 129.326 59.056C129.543 59.4898 129.543 60.1405 129.109 60.5743Z" fill="#00E5C3"/>
<path d="M138.869 97.0116C138.869 123.038 117.831 144.293 92.0213 144.51V142.341C116.747 141.908 136.7 121.737 136.7 97.0116C136.7 72.2863 116.747 51.8987 92.0213 51.6818V49.5129C117.831 49.7298 138.869 70.9849 138.869 97.0116Z" fill="#00E5C3"/>
<path d="M84.4302 51.2482C86.3822 51.2482 87.9005 49.7299 87.9005 47.7779V27.1735C87.9005 25.2215 86.3822 23.9202 84.6471 23.9202H79.4418C79.008 23.9202 78.3573 24.3539 78.3573 24.7877L76.6222 36.7166C76.4053 38.0179 75.3209 39.3193 74.0196 39.5362C73.5858 39.5362 73.3689 39.7531 72.9351 39.7531C68.3805 40.6206 64.0427 42.1388 59.9218 44.0908C59.7049 44.3077 59.2711 44.3077 59.0542 44.5246C57.7529 45.1753 56.2347 44.9584 55.1502 43.8739L47.3422 35.8491C46.4747 34.7646 45.824 34.7646 45.3902 35.1984L36.9316 41.4882C36.4978 41.7051 36.2809 42.3557 36.7147 42.7895L42.3538 53.2002C43.0045 54.5015 42.7876 56.0197 41.92 57.1042C41.7031 57.3211 41.4862 57.5379 41.2693 57.7548C38.6667 60.5744 36.2809 63.8277 34.112 67.2979C33.8951 67.5148 33.6782 67.9486 33.6782 68.1655C33.0276 69.4668 31.5093 70.1175 30.208 69.6837L19.3636 67.5148C18.0622 67.2979 17.4116 67.5148 17.4116 68.1655L13.9413 77.9255C13.7245 78.3593 13.9413 79.0099 14.3751 79.2268L25.0027 84.6491C26.304 85.2997 26.9547 86.8179 26.7378 88.1193C26.7378 88.3362 26.7378 88.7699 26.5209 88.9868C26.0871 91.5895 26.0871 94.1922 26.0871 97.0117C26.0871 98.9637 26.0871 100.699 26.304 102.434C26.304 102.868 26.304 103.085 26.304 103.518C26.5209 105.037 25.6533 106.338 24.352 106.989L13.0738 112.194C12.8569 112.411 12.64 112.628 12.64 112.845L15.8933 123.472C15.8933 123.689 16.3271 123.906 16.544 123.906L28.6898 122.171C29.5573 121.954 30.6418 122.171 31.2925 123.038C32.5938 124.34 33.4613 126.292 34.3289 127.81C36.2809 131.063 38.6667 134.1 41.0525 136.919C42.1369 138.221 42.7876 139.522 42.1369 141.257L36.4978 151.885C36.2809 152.318 36.2809 152.969 36.7147 153.186L45.1733 159.259C45.6071 159.476 46.2578 159.476 46.6916 159.042L55.1502 150.583C56.2347 149.499 57.7529 149.282 59.0542 149.933C59.2711 150.149 59.7049 150.149 59.9218 150.366C64.0427 152.318 68.3805 153.62 72.7182 154.487C73.152 154.487 73.3689 154.704 73.8027 154.704C75.3209 154.921 76.4053 156.005 76.4053 157.524L78.1405 169.453C78.1405 169.886 78.5742 170.32 79.2249 170.32H84.2133C85.9485 170.32 87.4667 168.802 87.4667 167.067V145.378C87.4667 144.077 86.3822 142.992 85.2978 142.992C61.44 142.992 40.6187 125.207 38.4498 101.349C36.2809 74.0215 57.7529 51.2482 84.4302 51.2482Z" fill="#00E5C3"/>
<path d="M476.347 95.9353H193.46C192.855 95.9353 192.364 96.3977 192.364 96.9682C192.364 97.5387 192.855 98.0011 193.46 98.0011H476.347C476.952 98.0011 477.443 97.5387 477.443 96.9682C477.443 96.3977 476.952 95.9353 476.347 95.9353Z" fill="url(#paint0_linear_3334_205)"/>
<path d="M213.104 74.4977H202.775L201.205 79.249H192.694L203.313 50.1214H212.65L223.227 79.249H214.674L213.104 74.4977ZM211.08 68.3003L207.94 58.8803L204.841 68.3003H211.08ZM234.377 56.6079V61.3593H243.673V67.5153H234.377V72.7624H244.913V79.249H226.279V50.1214H244.913V56.6079H234.377ZM268.639 79.5382C265.251 79.5382 262.469 78.7395 260.293 77.1419C258.117 75.5168 256.946 73.2031 256.781 70.2009H265.416C265.499 71.22 265.802 71.9637 266.325 72.4319C266.848 72.9002 267.523 73.1343 268.35 73.1343C269.093 73.1343 269.699 72.9552 270.167 72.5972C270.663 72.2116 270.911 71.6882 270.911 71.0272C270.911 70.1733 270.512 69.5123 269.713 69.044C268.914 68.5758 267.62 68.0524 265.829 67.474C263.929 66.8405 262.386 66.2345 261.202 65.6561C260.045 65.0501 259.026 64.1825 258.145 63.0532C257.291 61.8964 256.864 60.3952 256.864 58.5498C256.864 56.6768 257.332 55.0793 258.268 53.7571C259.205 52.4075 260.5 51.3884 262.152 50.6998C263.805 50.0112 265.678 49.6669 267.771 49.6669C271.159 49.6669 273.858 50.4657 275.869 52.0632C277.907 53.6332 278.995 55.8505 279.133 58.715H270.333C270.305 57.8336 270.03 57.1726 269.506 56.7319C269.011 56.2912 268.363 56.0708 267.565 56.0708C266.959 56.0708 266.463 56.2499 266.077 56.6079C265.692 56.966 265.499 57.4756 265.499 58.1366C265.499 58.6875 265.705 59.1695 266.118 59.5827C266.559 59.9683 267.096 60.3126 267.73 60.6156C268.363 60.891 269.3 61.2491 270.539 61.6898C272.385 62.3233 273.9 62.9568 275.084 63.5903C276.296 64.1963 277.329 65.0639 278.183 66.1932C279.064 67.295 279.505 68.6997 279.505 70.4074C279.505 72.1427 279.064 73.6989 278.183 75.0761C277.329 76.4533 276.076 77.5413 274.423 78.3401C272.798 79.1388 270.87 79.5382 268.639 79.5382ZM308.637 56.0708L293.929 90.2804H285.129L290.665 78.2574L281.162 56.0708H290.169L295.044 69.2093L299.754 56.0708H308.637ZM321.043 79.5382C318.95 79.5382 317.077 79.1939 315.424 78.5053C313.799 77.7892 312.505 76.8252 311.541 75.6132C310.604 74.3738 310.081 72.9828 309.971 71.4403H317.821C317.931 72.184 318.275 72.7624 318.854 73.1756C319.432 73.5888 320.148 73.7953 321.002 73.7953C321.663 73.7953 322.186 73.6576 322.572 73.3822C322.958 73.1067 323.15 72.7487 323.15 72.308C323.15 71.7295 322.834 71.3026 322.2 71.0272C321.567 70.7517 320.52 70.4487 319.06 70.1182C317.408 69.7877 316.03 69.4159 314.929 69.0027C313.827 68.5895 312.863 67.9147 312.037 66.9782C311.238 66.0417 310.838 64.7747 310.838 63.1772C310.838 61.8 311.21 60.5605 311.954 59.4587C312.698 58.3294 313.786 57.4343 315.218 56.7732C316.678 56.1122 318.427 55.7816 320.465 55.7816C323.495 55.7816 325.877 56.5253 327.613 58.0127C329.348 59.5001 330.353 61.4557 330.629 63.8795H323.316C323.178 63.1358 322.848 62.5712 322.324 62.1856C321.828 61.7724 321.154 61.5658 320.3 61.5658C319.639 61.5658 319.129 61.6898 318.771 61.9377C318.44 62.1856 318.275 62.5299 318.275 62.9706C318.275 63.5215 318.592 63.9484 319.225 64.2514C319.859 64.5268 320.878 64.816 322.283 65.119C323.963 65.4771 325.354 65.8765 326.456 66.3172C327.585 66.7579 328.563 67.474 329.389 68.4656C330.243 69.4296 330.67 70.7517 330.67 72.4319C330.67 73.7816 330.271 74.9935 329.472 76.0677C328.701 77.1419 327.585 77.9958 326.125 78.6293C324.693 79.2353 322.999 79.5382 321.043 79.5382ZM348.74 72.3493V79.249H345.228C339.306 79.249 336.345 76.3156 336.345 70.4487V62.8053H333.494V56.0708H336.345V50.4519H344.484V56.0708H348.699V62.8053H344.484V70.5727C344.484 71.2062 344.622 71.6607 344.897 71.9361C345.2 72.2116 345.696 72.3493 346.385 72.3493H348.74ZM375.013 67.3914C375.013 68.0249 374.971 68.6584 374.889 69.2919H359.56C359.643 70.5589 359.987 71.5092 360.593 72.1427C361.227 72.7487 362.026 73.0516 362.99 73.0516C364.339 73.0516 365.303 72.4457 365.882 71.2337H374.517C374.159 72.8313 373.456 74.2636 372.41 75.5306C371.39 76.7701 370.096 77.7479 368.526 78.464C366.956 79.1802 365.221 79.5382 363.32 79.5382C361.034 79.5382 358.996 79.0562 357.205 78.0922C355.443 77.1281 354.052 75.7509 353.032 73.9606C352.041 72.1702 351.545 70.0631 351.545 67.6393C351.545 65.2154 352.041 63.1221 353.032 61.3593C354.024 59.5689 355.401 58.1917 357.164 57.2277C358.954 56.2636 361.006 55.7816 363.32 55.7816C365.606 55.7816 367.631 56.2499 369.394 57.1864C371.156 58.1229 372.534 59.4725 373.525 61.2353C374.517 62.9706 375.013 65.0226 375.013 67.3914ZM366.749 65.3669C366.749 64.3753 366.419 63.6041 365.758 63.0532C365.097 62.4748 364.27 62.1856 363.279 62.1856C362.287 62.1856 361.475 62.461 360.841 63.0119C360.208 63.5352 359.795 64.3202 359.602 65.3669H366.749ZM409.024 55.8643C411.944 55.8643 414.23 56.7457 415.883 58.5085C417.563 60.2713 418.403 62.6814 418.403 65.7387V79.249H410.305V66.813C410.305 65.5735 409.961 64.6094 409.272 63.9208C408.583 63.2322 407.647 62.8879 406.463 62.8879C405.278 62.8879 404.342 63.2322 403.653 63.9208C402.965 64.6094 402.62 65.5735 402.62 66.813V79.249H394.522V66.813C394.522 65.5735 394.178 64.6094 393.489 63.9208C392.828 63.2322 391.906 62.8879 390.721 62.8879C389.509 62.8879 388.559 63.2322 387.87 63.9208C387.182 64.6094 386.838 65.5735 386.838 66.813V79.249H378.74V56.0708H386.838V59.1282C387.554 58.1366 388.476 57.3516 389.606 56.7732C390.763 56.1672 392.085 55.8643 393.572 55.8643C395.28 55.8643 396.795 56.2361 398.117 56.9798C399.466 57.7235 400.527 58.7701 401.298 60.1198C402.124 58.8528 403.212 57.8336 404.562 57.0624C405.912 56.2636 407.399 55.8643 409.024 55.8643ZM433.127 79.5382C431.034 79.5382 429.161 79.1939 427.508 78.5053C425.883 77.7892 424.589 76.8252 423.624 75.6132C422.688 74.3738 422.165 72.9828 422.054 71.4403H429.904C430.015 72.184 430.359 72.7624 430.937 73.1756C431.516 73.5888 432.232 73.7953 433.086 73.7953C433.747 73.7953 434.27 73.6576 434.656 73.3822C435.041 73.1067 435.234 72.7487 435.234 72.308C435.234 71.7295 434.917 71.3026 434.284 71.0272C433.65 70.7517 432.604 70.4487 431.144 70.1182C429.491 69.7877 428.114 69.4159 427.012 69.0027C425.911 68.5895 424.947 67.9147 424.12 66.9782C423.321 66.0417 422.922 64.7747 422.922 63.1772C422.922 61.8 423.294 60.5605 424.038 59.4587C424.781 58.3294 425.869 57.4343 427.302 56.7732C428.761 56.1122 430.51 55.7816 432.549 55.7816C435.579 55.7816 437.961 56.5253 439.696 58.0127C441.432 59.5001 442.437 61.4557 442.712 63.8795H435.399C435.262 63.1358 434.931 62.5712 434.408 62.1856C433.912 61.7724 433.237 61.5658 432.383 61.5658C431.722 61.5658 431.213 61.6898 430.855 61.9377C430.524 62.1856 430.359 62.5299 430.359 62.9706C430.359 63.5215 430.676 63.9484 431.309 64.2514C431.943 64.5268 432.962 64.816 434.367 65.119C436.047 65.4771 437.438 65.8765 438.539 66.3172C439.669 66.7579 440.647 67.474 441.473 68.4656C442.327 69.4296 442.754 70.7517 442.754 72.4319C442.754 73.7816 442.354 74.9935 441.556 76.0677C440.784 77.1419 439.669 77.9958 438.209 78.6293C436.777 79.2353 435.083 79.5382 433.127 79.5382Z" fill="white"/>
<path d="M208.56 110.838V125.133H206.68V114.473L201.929 125.133H200.606L195.834 114.453V125.133H193.955V110.838H195.979L201.267 122.654L206.556 110.838H208.56ZM211.872 119.431C211.872 118.274 212.106 117.262 212.574 116.395C213.042 115.513 213.683 114.831 214.495 114.349C215.322 113.867 216.237 113.626 217.243 113.626C218.234 113.626 219.095 113.84 219.825 114.267C220.555 114.694 221.099 115.231 221.457 115.878V113.812H223.358V125.133H221.457V123.026C221.085 123.687 220.527 124.238 219.784 124.678C219.054 125.105 218.2 125.319 217.222 125.319C216.217 125.319 215.308 125.071 214.495 124.575C213.683 124.079 213.042 123.384 212.574 122.489C212.106 121.593 211.872 120.574 211.872 119.431ZM221.457 119.452C221.457 118.598 221.285 117.854 220.941 117.221C220.596 116.587 220.128 116.105 219.536 115.775C218.957 115.43 218.317 115.258 217.615 115.258C216.912 115.258 216.272 115.424 215.693 115.754C215.115 116.085 214.654 116.567 214.309 117.2C213.965 117.834 213.793 118.577 213.793 119.431C213.793 120.299 213.965 121.056 214.309 121.704C214.654 122.337 215.115 122.826 215.693 123.17C216.272 123.501 216.912 123.666 217.615 123.666C218.317 123.666 218.957 123.501 219.536 123.17C220.128 122.826 220.596 122.337 220.941 121.704C221.285 121.056 221.457 120.306 221.457 119.452ZM233.682 125.133L229.241 120.134V125.133H227.361V109.846H229.241V118.832L233.599 113.812H236.223L230.893 119.452L236.244 125.133H233.682ZM249.148 119.039C249.148 119.397 249.127 119.776 249.086 120.175H240.037C240.106 121.29 240.485 122.165 241.174 122.798C241.876 123.418 242.723 123.728 243.714 123.728C244.527 123.728 245.202 123.542 245.739 123.17C246.29 122.785 246.675 122.275 246.896 121.642H248.92C248.617 122.73 248.011 123.618 247.102 124.306C246.193 124.981 245.064 125.319 243.714 125.319C242.64 125.319 241.676 125.078 240.822 124.596C239.982 124.114 239.321 123.432 238.839 122.551C238.357 121.655 238.116 120.622 238.116 119.452C238.116 118.281 238.35 117.255 238.819 116.374C239.287 115.492 239.941 114.818 240.781 114.349C241.635 113.867 242.613 113.626 243.714 113.626C244.789 113.626 245.739 113.86 246.565 114.329C247.392 114.797 248.025 115.444 248.466 116.271C248.92 117.083 249.148 118.006 249.148 119.039ZM247.206 118.646C247.206 117.93 247.047 117.317 246.731 116.808C246.414 116.284 245.98 115.892 245.429 115.63C244.892 115.355 244.293 115.217 243.632 115.217C242.682 115.217 241.869 115.52 241.194 116.126C240.533 116.732 240.154 117.572 240.058 118.646H247.206ZM260.669 112.263V117.076H265.916V118.626H260.669V123.583H266.536V125.133H258.789V110.714H266.536V112.263H260.669ZM274.421 123.398L277.933 113.812H279.936L275.495 125.133H273.305L268.864 113.812H270.888L274.421 123.398ZM292.942 119.039C292.942 119.397 292.921 119.776 292.88 120.175H283.831C283.9 121.29 284.279 122.165 284.968 122.798C285.67 123.418 286.517 123.728 287.508 123.728C288.321 123.728 288.996 123.542 289.533 123.17C290.084 122.785 290.469 122.275 290.69 121.642H292.714C292.411 122.73 291.805 123.618 290.896 124.306C289.987 124.981 288.858 125.319 287.508 125.319C286.434 125.319 285.47 125.078 284.616 124.596C283.776 124.114 283.115 123.432 282.633 122.551C282.151 121.655 281.91 120.622 281.91 119.452C281.91 118.281 282.144 117.255 282.613 116.374C283.081 115.492 283.735 114.818 284.575 114.349C285.429 113.867 286.407 113.626 287.508 113.626C288.583 113.626 289.533 113.86 290.359 114.329C291.186 114.797 291.819 115.444 292.26 116.271C292.714 117.083 292.942 118.006 292.942 119.039ZM291 118.646C291 117.93 290.841 117.317 290.525 116.808C290.208 116.284 289.774 115.892 289.223 115.63C288.686 115.355 288.087 115.217 287.426 115.217C286.476 115.217 285.663 115.52 284.988 116.126C284.327 116.732 283.948 117.572 283.852 118.646H291ZM298.129 115.651C298.46 115.004 298.928 114.501 299.534 114.143C300.154 113.785 300.904 113.606 301.786 113.606V115.548H301.29C299.183 115.548 298.129 116.691 298.129 118.977V125.133H296.249V113.812H298.129V115.651ZM314.532 113.812L307.715 130.463H305.773L308.005 125.009L303.439 113.812H305.526L309.079 122.984L312.591 113.812H314.532ZM319.541 115.362V122.034C319.541 122.585 319.659 122.978 319.893 123.212C320.127 123.432 320.533 123.542 321.111 123.542H322.496V125.133H320.802C319.755 125.133 318.97 124.892 318.447 124.41C317.923 123.928 317.662 123.136 317.662 122.034V115.362H316.195V113.812H317.662V110.961H319.541V113.812H322.496V115.362H319.541ZM331.219 113.606C332.072 113.606 332.844 113.792 333.532 114.163C334.221 114.522 334.758 115.066 335.144 115.795C335.543 116.525 335.743 117.414 335.743 118.46V125.133H333.883V118.729C333.883 117.6 333.601 116.739 333.036 116.147C332.472 115.541 331.701 115.238 330.723 115.238C329.731 115.238 328.939 115.548 328.347 116.167C327.769 116.787 327.479 117.689 327.479 118.873V125.133H325.6V109.846H327.479V115.424C327.851 114.845 328.361 114.398 329.008 114.081C329.669 113.764 330.406 113.606 331.219 113.606ZM340.611 111.974C340.253 111.974 339.95 111.85 339.702 111.602C339.454 111.354 339.33 111.051 339.33 110.693C339.33 110.335 339.454 110.032 339.702 109.784C339.95 109.536 340.253 109.412 340.611 109.412C340.955 109.412 341.244 109.536 341.478 109.784C341.726 110.032 341.85 110.335 341.85 110.693C341.85 111.051 341.726 111.354 341.478 111.602C341.244 111.85 340.955 111.974 340.611 111.974ZM341.52 113.812V125.133H339.64V113.812H341.52ZM351.065 113.606C352.443 113.606 353.558 114.026 354.412 114.866C355.266 115.692 355.693 116.89 355.693 118.46V125.133H353.834V118.729C353.834 117.6 353.551 116.739 352.987 116.147C352.422 115.541 351.651 115.238 350.673 115.238C349.681 115.238 348.889 115.548 348.297 116.167C347.719 116.787 347.43 117.689 347.43 118.873V125.133H345.55V113.812H347.43V115.424C347.802 114.845 348.304 114.398 348.938 114.081C349.585 113.764 350.294 113.606 351.065 113.606ZM364.259 113.626C365.236 113.626 366.09 113.84 366.82 114.267C367.564 114.694 368.115 115.231 368.473 115.878V113.812H370.373V125.381C370.373 126.414 370.153 127.329 369.712 128.128C369.272 128.941 368.638 129.574 367.812 130.029C366.999 130.483 366.049 130.71 364.961 130.71C363.474 130.71 362.234 130.359 361.243 129.657C360.251 128.955 359.666 127.997 359.487 126.785H361.346C361.552 127.474 361.979 128.025 362.627 128.438C363.274 128.865 364.052 129.078 364.961 129.078C365.994 129.078 366.834 128.755 367.481 128.108C368.142 127.46 368.473 126.551 368.473 125.381V123.005C368.101 123.666 367.55 124.217 366.82 124.658C366.09 125.098 365.236 125.319 364.259 125.319C363.253 125.319 362.337 125.071 361.511 124.575C360.699 124.079 360.058 123.384 359.59 122.489C359.122 121.593 358.888 120.574 358.888 119.431C358.888 118.274 359.122 117.262 359.59 116.395C360.058 115.513 360.699 114.831 361.511 114.349C362.337 113.867 363.253 113.626 364.259 113.626ZM368.473 119.452C368.473 118.598 368.301 117.854 367.956 117.221C367.612 116.587 367.144 116.105 366.552 115.775C365.973 115.43 365.333 115.258 364.63 115.258C363.928 115.258 363.288 115.424 362.709 115.754C362.131 116.085 361.669 116.567 361.325 117.2C360.981 117.834 360.809 118.577 360.809 119.431C360.809 120.299 360.981 121.056 361.325 121.704C361.669 122.337 362.131 122.826 362.709 123.17C363.288 123.501 363.928 123.666 364.63 123.666C365.333 123.666 365.973 123.501 366.552 123.17C367.144 122.826 367.612 122.337 367.956 121.704C368.301 121.056 368.473 120.306 368.473 119.452ZM387.92 117.717C388.443 117.799 388.918 118.013 389.345 118.357C389.786 118.701 390.13 119.128 390.378 119.638C390.64 120.147 390.771 120.691 390.771 121.27C390.771 122 390.585 122.661 390.213 123.253C389.841 123.831 389.297 124.293 388.581 124.637C387.879 124.968 387.045 125.133 386.081 125.133H380.71V110.734H385.875C386.853 110.734 387.686 110.9 388.374 111.23C389.063 111.547 389.579 111.981 389.924 112.531C390.268 113.082 390.44 113.702 390.44 114.391C390.44 115.245 390.206 115.954 389.738 116.518C389.283 117.069 388.677 117.469 387.92 117.717ZM382.59 116.952H385.751C386.632 116.952 387.314 116.746 387.796 116.333C388.278 115.919 388.519 115.348 388.519 114.618C388.519 113.888 388.278 113.316 387.796 112.903C387.314 112.49 386.618 112.284 385.709 112.284H382.59V116.952ZM385.916 123.583C386.853 123.583 387.582 123.363 388.106 122.922C388.629 122.482 388.891 121.869 388.891 121.084C388.891 120.285 388.615 119.658 388.064 119.204C387.514 118.736 386.777 118.502 385.854 118.502H382.59V123.583H385.916ZM404.535 119.039C404.535 119.397 404.514 119.776 404.473 120.175H395.424C395.493 121.29 395.872 122.165 396.561 122.798C397.263 123.418 398.11 123.728 399.102 123.728C399.914 123.728 400.589 123.542 401.126 123.17C401.677 122.785 402.063 122.275 402.283 121.642H404.307C404.004 122.73 403.398 123.618 402.489 124.306C401.581 124.981 400.451 125.319 399.102 125.319C398.027 125.319 397.063 125.078 396.209 124.596C395.369 124.114 394.708 123.432 394.226 122.551C393.744 121.655 393.503 120.622 393.503 119.452C393.503 118.281 393.737 117.255 394.206 116.374C394.674 115.492 395.328 114.818 396.168 114.349C397.022 113.867 398 113.626 399.102 113.626C400.176 113.626 401.126 113.86 401.952 114.329C402.779 114.797 403.412 115.444 403.853 116.271C404.307 117.083 404.535 118.006 404.535 119.039ZM402.593 118.646C402.593 117.93 402.434 117.317 402.118 116.808C401.801 116.284 401.367 115.892 400.816 115.63C400.279 115.355 399.68 115.217 399.019 115.217C398.069 115.217 397.256 115.52 396.581 116.126C395.92 116.732 395.542 117.572 395.445 118.646H402.593ZM410.135 115.362V122.034C410.135 122.585 410.252 122.978 410.487 123.212C410.721 123.432 411.127 123.542 411.705 123.542H413.089V125.133H411.395C410.349 125.133 409.564 124.892 409.04 124.41C408.517 123.928 408.255 123.136 408.255 122.034V115.362H406.789V113.812H408.255V110.961H410.135V113.812H413.089V115.362H410.135ZM418.486 115.362V122.034C418.486 122.585 418.604 122.978 418.838 123.212C419.072 123.432 419.478 123.542 420.056 123.542H421.441V125.133H419.747C418.7 125.133 417.915 124.892 417.392 124.41C416.868 123.928 416.607 123.136 416.607 122.034V115.362H415.14V113.812H416.607V110.961H418.486V113.812H421.441V115.362H418.486ZM434.874 119.039C434.874 119.397 434.853 119.776 434.812 120.175H425.763C425.832 121.29 426.211 122.165 426.9 122.798C427.602 123.418 428.449 123.728 429.44 123.728C430.253 123.728 430.928 123.542 431.465 123.17C432.016 122.785 432.401 122.275 432.622 121.642H434.646C434.343 122.73 433.737 123.618 432.828 124.306C431.919 124.981 430.79 125.319 429.44 125.319C428.366 125.319 427.402 125.078 426.548 124.596C425.708 124.114 425.047 123.432 424.565 122.551C424.083 121.655 423.842 120.622 423.842 119.452C423.842 118.281 424.076 117.255 424.545 116.374C425.013 115.492 425.667 114.818 426.507 114.349C427.361 113.867 428.339 113.626 429.44 113.626C430.515 113.626 431.465 113.86 432.291 114.329C433.118 114.797 433.751 115.444 434.192 116.271C434.646 117.083 434.874 118.006 434.874 119.039ZM432.932 118.646C432.932 117.93 432.773 117.317 432.457 116.808C432.14 116.284 431.706 115.892 431.155 115.63C430.618 115.355 430.019 115.217 429.358 115.217C428.408 115.217 427.595 115.52 426.92 116.126C426.259 116.732 425.88 117.572 425.784 118.646H432.932ZM440.061 115.651C440.392 115.004 440.86 114.501 441.466 114.143C442.086 113.785 442.836 113.606 443.718 113.606V115.548H443.222C441.115 115.548 440.061 116.691 440.061 118.977V125.133H438.181V113.812H440.061V115.651Z" fill="#00E5C3"/>
<path d="M177.903 157.601V36.4145C177.903 35.5427 177.49 34.9614 176.87 34.9614C176.251 34.9614 175.838 35.5427 175.838 36.4145V157.456C175.838 158.328 176.251 158.909 176.87 158.909C177.49 158.909 177.903 158.328 177.903 157.601Z" fill="#00E5C3"/>
<defs>
<linearGradient id="paint0_linear_3334_205" x1="192.364" y1="95.9353" x2="477.443" y2="95.9353" gradientUnits="userSpaceOnUse">
<stop stop-color="#00E5C3"/>
<stop offset="1" stop-color="#00C2FF"/>
</linearGradient>
</defs>
  </g>

  <!-- ── IIT BADGE — top right ── -->
  <rect x="970" y="44" width="190" height="32" rx="16" fill="rgba(0,229,195,0.1)" stroke="rgba(0,229,195,0.35)" stroke-width="1"/>
  <text x="1065" y="65" font-family="'Poppins', 'Arial', sans-serif" font-size="11" font-weight="700" letter-spacing="2" text-anchor="middle" fill="#00E5C3">IIT JAMMU VALIDATED</text>

  <!-- ── MAIN HEADLINE ── -->
  <!-- Eyebrow label -->
  <rect x="60" y="192" width="8" height="1" fill="#00E5C3"/>
  <text x="60" y="205" font-family="'Poppins', 'Arial', sans-serif" font-size="11" font-weight="700" letter-spacing="3.5" fill="#00E5C3">AI-POWERED BUILDING INTELLIGENCE</text>

  <!-- Main title line 1 -->
  <text x="60" y="270" font-family="'Poppins', 'Georgia', serif" font-size="64" font-weight="800" fill="#FFFFFF" letter-spacing="-1">Make Buildings</text>

  <!-- Main title line 2 — accent coloured -->
  <text x="60" y="348" font-family="'Poppins', 'Georgia', serif" font-size="64" font-weight="800" letter-spacing="-1">
    <tspan fill="#00E5C3">20–30%</tspan>
    <tspan fill="#FFFFFF"> Smarter</tspan>
  </text>

  <!-- Subtitle -->
  <text x="60" y="395" font-family="'Poppins', 'Arial', sans-serif" font-size="18" font-weight="400" fill="#A8BDD0" letter-spacing="0.3">AI-driven BMS · Smart HVAC · Energy Savings · IIT Proven</text>

  <!-- Left accent vertical rule -->
  <rect x="60" y="416" width="380" height="1" fill="rgba(0,194,255,0.25)"/>

  <!-- ── STATS ROW — bottom left ── -->
  <!-- Stat 1 -->
  <rect x="60" y="450" width="160" height="80" rx="6" fill="rgba(0,194,255,0.06)" stroke="rgba(0,194,255,0.18)" stroke-width="1"/>
  <text x="140" y="492" font-family="'Poppins', 'Arial', sans-serif" font-size="32" font-weight="800" fill="#00E5C3" text-anchor="middle">20-30%</text>
  <text x="140" y="516" font-family="'Poppins', 'Arial', sans-serif" font-size="10" font-weight="600" letter-spacing="1.5" fill="#3A5470" text-anchor="middle">HVAC SAVINGS</text>

  <!-- Stat 2 -->
  <rect x="236" y="450" width="130" height="80" rx="6" fill="rgba(0,194,255,0.06)" stroke="rgba(0,194,255,0.18)" stroke-width="1"/>
  <text x="301" y="492" font-family="'Poppins', 'Arial', sans-serif" font-size="32" font-weight="800" fill="#00C2FF" text-anchor="middle">7+</text>
  <text x="301" y="516" font-family="'Poppins', 'Arial', sans-serif" font-size="10" font-weight="600" letter-spacing="1.5" fill="#3A5470" text-anchor="middle">LIVE SITES</text>

  <!-- Stat 3 -->
  <rect x="382" y="450" width="130" height="80" rx="6" fill="rgba(0,194,255,0.06)" stroke="rgba(0,194,255,0.18)" stroke-width="1"/>
  <text x="447" y="492" font-family="'Poppins', 'Arial', sans-serif" font-size="32" font-weight="800" fill="#00E5C3" text-anchor="middle">12</text>
  <text x="447" y="516" font-family="'Poppins', 'Arial', sans-serif" font-size="10" font-weight="600" letter-spacing="1.5" fill="#3A5470" text-anchor="middle">PATENTS FILED</text>

  <!-- Stat 4 -->
  <rect x="528" y="450" width="130" height="80" rx="6" fill="rgba(0,194,255,0.06)" stroke="rgba(0,194,255,0.18)" stroke-width="1"/>
  <text x="593" y="492" font-family="'Poppins', 'Arial', sans-serif" font-size="32" font-weight="800" fill="#00C2FF" text-anchor="middle">100%</text>
  <text x="593" y="516" font-family="'Poppins', 'Arial', sans-serif" font-size="10" font-weight="600" letter-spacing="1.5" fill="#3A5470" text-anchor="middle">MAKE IN INDIA</text>

  <!-- ── RIGHT PANEL CONTENT ── -->
  <!-- Large teal arc / ring decorative element -->
  <circle cx="1080" cy="315" r="200" fill="none" stroke="rgba(0,229,195,0.06)" stroke-width="1"/>
  <circle cx="1080" cy="315" r="160" fill="none" stroke="rgba(0,229,195,0.08)" stroke-width="1"/>
  <circle cx="1080" cy="315" r="120" fill="none" stroke="rgba(0,194,255,0.1)" stroke-width="1.5"/>
  <circle cx="1080" cy="315" r="80" fill="none" stroke="rgba(0,229,195,0.14)" stroke-width="2"/>

  <!-- Favicon icon centred in rings -->
  <g transform="translate(1004, 239) scale(0.99)">
    <path d="M150.738 73.959C150.738 113.433 118.638 145.749 79.3813 146.183V144.014C117.554 143.58 148.569 112.348 148.569 73.959C148.569 65.7173 147.051 57.4755 144.231 49.8844C144.014 49.2337 144.231 48.7999 144.882 48.583C145.532 48.3662 145.966 48.583 146.183 49.2337C149.22 57.0417 150.738 65.2835 150.738 73.959Z" fill="#00E5C3"/>
<path d="M140.327 34.4855C140.11 34.4855 139.893 34.4855 139.46 34.4855C126.229 13.6641 103.89 1.08456 79.1644 0.867676V3.03656C103.022 3.25345 124.711 15.3992 137.508 35.5699C137.074 36.2206 136.64 36.8712 136.64 37.7388C136.64 39.6908 138.158 41.209 140.11 41.209C142.062 41.209 143.58 39.6908 143.58 37.7388C143.58 35.7868 142.279 34.4855 140.327 34.4855ZM140.327 39.257C139.676 39.257 139.026 38.8232 139.026 37.9557C139.026 37.0881 139.676 36.6543 140.327 36.6543C140.978 36.6543 141.628 37.305 141.628 37.9557C141.628 38.6063 140.978 39.257 140.327 39.257Z" fill="#00E5C3"/>
<path d="M123.41 122.325C111.264 133.604 95.648 139.676 79.3813 139.893V137.724C95.2142 137.508 110.396 131.435 122.108 120.807C122.542 120.373 123.193 120.373 123.627 120.807C123.844 121.241 123.844 121.892 123.41 122.325Z" fill="#00E5C3"/>
<path d="M127.314 117.77C127.097 117.77 126.88 117.77 126.663 117.554C126.229 117.12 126.229 116.469 126.663 116.035C136.857 104.323 142.713 89.358 142.713 73.9589C142.713 49.8842 129.266 27.9784 107.794 16.9171C107.36 16.7002 107.143 16.0495 107.36 15.3989C107.577 14.9651 108.228 14.7482 108.878 14.9651C131.218 26.2433 145.099 48.7998 145.099 73.742C145.099 89.7918 139.243 105.191 128.615 117.337C127.964 117.77 127.748 117.77 127.314 117.77Z" fill="#00E5C3"/>
<path d="M102.372 10.1941C101.287 10.1941 100.42 10.6279 99.9858 11.2786C93.4791 9.10968 86.5387 7.80835 79.3813 7.80835V9.97724C86.1049 9.97724 92.6116 11.0617 98.9013 13.2306V13.4475C98.9013 15.3995 100.42 16.9177 102.372 16.9177C104.324 16.9177 105.842 15.3995 105.842 13.4475C105.625 11.7124 104.107 10.1941 102.372 10.1941ZM102.372 14.7488C101.721 14.7488 101.07 14.0981 101.07 13.4475C101.07 12.7968 101.721 12.1461 102.372 12.1461C103.022 12.1461 103.673 12.5799 103.673 13.4475C103.673 14.315 103.022 14.7488 102.372 14.7488Z" fill="#00E5C3"/>
<path d="M137.074 76.5619C135.122 76.5619 133.604 78.0801 133.604 80.0321C133.604 81.3335 134.254 82.4179 135.339 83.0686C130.567 110.613 107.143 130.567 79.1644 131.001V133.17C108.228 132.736 132.519 112.132 137.508 83.5023C139.026 83.2854 140.327 81.7672 140.327 80.249C140.327 78.0801 138.809 76.5619 137.074 76.5619ZM137.074 81.1166C136.423 81.1166 135.772 80.6828 135.772 79.8152C135.772 79.1646 136.206 78.5139 137.074 78.5139C137.724 78.5139 138.375 78.9477 138.375 79.8152C138.158 80.6828 137.724 81.1166 137.074 81.1166Z" fill="#00E5C3"/>
<path d="M138.592 73.0916C138.592 73.7422 138.158 74.176 137.508 74.176C136.857 74.176 136.423 73.7422 136.423 73.0916C136.423 41.4258 110.83 15.8329 79.3813 15.3991V13.2302C111.915 13.664 138.592 40.3413 138.592 73.0916Z" fill="#00E5C3"/>
<path d="M96.7324 119.289C94.9973 119.289 93.4791 120.807 93.2622 122.542C88.7075 123.843 83.936 124.711 79.1644 124.711V126.88C84.1529 126.88 89.1413 126.012 93.9129 124.711C94.5635 125.579 95.648 126.229 96.7324 126.229C98.6844 126.229 100.203 124.711 100.203 122.759C100.203 120.807 98.6844 119.289 96.7324 119.289ZM96.7324 123.843C96.0818 123.843 95.4311 123.193 95.4311 122.542C95.4311 121.891 96.0818 121.241 96.7324 121.241C97.3831 121.241 98.0338 121.675 98.0338 122.542C98.0338 123.41 97.3831 123.843 96.7324 123.843Z" fill="#00E5C3"/>
<path d="M104.974 119.723C104.54 119.723 104.324 119.506 104.107 119.289C103.89 118.855 103.89 118.204 104.54 117.771C120.373 108.444 130.35 91.5271 130.35 73.0915C130.35 61.5964 126.663 50.752 119.723 41.8595C119.289 41.4257 119.506 40.7751 119.94 40.3413C120.373 39.9075 121.024 40.1244 121.458 40.5582C128.615 50.1013 132.519 61.3795 132.519 73.3084C132.519 92.3946 122.325 110.18 105.625 119.94C105.408 119.723 105.191 119.723 104.974 119.723Z" fill="#00E5C3"/>
<path d="M116.469 36.6542C116.252 36.8711 116.036 37.088 115.819 37.088C115.602 37.088 115.168 37.088 115.168 36.6542C105.625 27.1111 92.8284 21.6889 79.3813 21.472V19.3031C93.4791 19.52 106.709 24.9422 116.686 35.136C116.903 35.5698 116.903 36.2204 116.469 36.6542Z" fill="#00E5C3"/>
<path d="M126.229 73.0914C126.229 99.1181 105.191 120.373 79.3813 120.59V118.421C104.107 117.987 124.06 97.8168 124.06 73.0914C124.06 48.3661 104.107 27.9786 79.3813 27.7617V25.5928C105.191 25.8097 126.229 47.0648 126.229 73.0914Z" fill="#00E5C3"/>
<path d="M71.7902 27.328C73.7422 27.328 75.2604 25.8098 75.2604 23.8578V3.25333C75.2604 1.30133 73.7422 0 72.0071 0H66.8018C66.368 0 65.7173 0.433781 65.7173 0.867559L63.9822 12.7964C63.7653 14.0978 62.6809 15.3991 61.3796 15.616C60.9458 15.616 60.7289 15.8329 60.2951 15.8329C55.7404 16.7004 51.4027 18.2187 47.2818 20.1707C47.0649 20.3876 46.6311 20.3876 46.4142 20.6044C45.1129 21.2551 43.5947 21.0382 42.5102 19.9538L34.7022 11.9289C33.8347 10.8444 33.184 10.8444 32.7502 11.2782L24.2916 17.568C23.8578 17.7849 23.6409 18.4356 24.0747 18.8693L29.7138 29.28C30.3644 30.5813 30.1476 32.0996 29.28 33.184C29.0631 33.4009 28.8462 33.6178 28.6293 33.8347C26.0267 36.6542 23.6409 39.9076 21.472 43.3778C21.2551 43.5947 21.0382 44.0284 21.0382 44.2453C20.3876 45.5467 18.8693 46.1973 17.568 45.7636L6.72355 43.5947C5.42222 43.3778 4.77155 43.5947 4.77155 44.2453L1.30133 54.0053C1.08445 54.4391 1.30133 55.0898 1.73511 55.3067L12.3627 60.7289C13.664 61.3796 14.3147 62.8978 14.0978 64.1991C14.0978 64.416 14.0978 64.8498 13.8809 65.0667C13.4471 67.6693 13.4471 70.272 13.4471 73.0916C13.4471 75.0436 13.4471 76.7787 13.664 78.5138C13.664 78.9476 13.664 79.1644 13.664 79.5982C13.8809 81.1164 13.0133 82.4178 11.712 83.0684L0.433777 88.2738C0.216888 88.4907 0 88.7076 0 88.9244L3.25334 99.552C3.25334 99.7689 3.68711 99.9858 3.904 99.9858L16.0498 98.2507C16.9173 98.0338 18.0018 98.2507 18.6524 99.1182C19.9538 100.42 20.8213 102.372 21.6889 103.89C23.6409 107.143 26.0267 110.18 28.4124 112.999C29.4969 114.3 30.1476 115.602 29.4969 117.337L23.8578 127.964C23.6409 128.398 23.6409 129.049 24.0747 129.266L32.5333 135.339C32.9671 135.556 33.6178 135.556 34.0516 135.122L42.5102 126.663C43.5947 125.579 45.1129 125.362 46.4142 126.012C46.6311 126.229 47.0649 126.229 47.2818 126.446C51.4027 128.398 55.7404 129.7 60.0782 130.567C60.512 130.567 60.7289 130.784 61.1627 130.784C62.6809 131.001 63.7653 132.085 63.7653 133.604L65.5004 145.532C65.5004 145.966 65.9342 146.4 66.5849 146.4H71.5733C73.3084 146.4 74.8267 144.882 74.8267 143.147V121.458C74.8267 120.156 73.7422 119.072 72.6578 119.072C48.8 119.072 27.9787 101.287 25.8098 77.4293C23.6409 50.1013 45.1129 27.328 71.7902 27.328Z" fill="#00E5C3"/>
  </g>

  <!-- Feature pills right side -->
  <rect x="710" y="175" width="200" height="30" rx="15" fill="rgba(0,229,195,0.08)" stroke="rgba(0,229,195,0.25)" stroke-width="1"/>
  <text x="810" y="195" font-family="'Poppins', 'Arial', sans-serif" font-size="11" font-weight="600" letter-spacing="1" fill="#00E5C3" text-anchor="middle">✦ Smart BMS Platform</text>

  <rect x="710" y="218" width="200" height="30" rx="15" fill="rgba(0,194,255,0.08)" stroke="rgba(0,194,255,0.2)" stroke-width="1"/>
  <text x="810" y="238" font-family="'Poppins', 'Arial', sans-serif" font-size="11" font-weight="600" letter-spacing="1" fill="#00C2FF" text-anchor="middle">✦ VFD &amp; Chiller Control</text>

  <rect x="710" y="261" width="200" height="30" rx="15" fill="rgba(0,229,195,0.08)" stroke="rgba(0,229,195,0.25)" stroke-width="1"/>
  <text x="810" y="281" font-family="'Poppins', 'Arial', sans-serif" font-size="11" font-weight="600" letter-spacing="1" fill="#00E5C3" text-anchor="middle">✦ 3D Digital Twin</text>

  <rect x="710" y="304" width="200" height="30" rx="15" fill="rgba(0,194,255,0.08)" stroke="rgba(0,194,255,0.2)" stroke-width="1"/>
  <text x="810" y="324" font-family="'Poppins', 'Arial', sans-serif" font-size="11" font-weight="600" letter-spacing="1" fill="#00C2FF" text-anchor="middle">✦ Predictive AI</text>

  <rect x="710" y="347" width="200" height="30" rx="15" fill="rgba(0,229,195,0.08)" stroke="rgba(0,229,195,0.25)" stroke-width="1"/>
  <text x="810" y="367" font-family="'Poppins', 'Arial', sans-serif" font-size="11" font-weight="600" letter-spacing="1" fill="#00E5C3" text-anchor="middle">✦ IT / ELV Solutions</text>

  <!-- ── BOTTOM BAR ── -->
  <rect x="0" y="594" width="1200" height="36" fill="rgba(0,194,255,0.06)"/>
  <rect x="0" y="594" width="1200" height="1" fill="rgba(0,194,255,0.2)"/>
  
  <text x="60" y="617" font-family="'Poppins', 'Arial', sans-serif" font-size="11" font-weight="600" letter-spacing="1.5" fill="#3A5470">www.aesystems.in</text>
  <text x="600" y="617" font-family="'Poppins', 'Arial', sans-serif" font-size="11" font-weight="600" letter-spacing="1.5" fill="#3A5470" text-anchor="middle">Avenix Engineering Systems Pvt Ltd</text>
  <text x="1140" y="617" font-family="'Poppins', 'Arial', sans-serif" font-size="11" font-weight="600" letter-spacing="1.5" fill="#3A5470" text-anchor="end">sales@aesystems.in</text>

  <!-- Bottom accent line -->
  <rect x="0" y="626" width="1200" height="4" fill="url(#accentGrad)"/>
</svg>